<?xml version="1.0" standalone="no"?>
<!DOCTYPE svg PUBLIC "-//W3C//DTD SVG 1.1//EN" "http://www.w3.org/Graphics/SVG/1.1/DTD/svg11.dtd" >
<!--
2013-9-30: Created.
-->
<svg>
<metadata>
Created by iconfont
</metadata>
<defs>

<font id="iconfont" horiz-adv-x="1024" >
  <font-face
    font-family="iconfont"
    font-weight="500"
    font-stretch="normal"
    units-per-em="1024"
    ascent="896"
    descent="-128"
  />
    <missing-glyph />
    
    <glyph glyph-name="camera" unicode="&#58988;" d="M513.144056 534.676721c-114.613364 0-207.526497-92.913133-207.526497-207.526497s92.913133-207.526497 207.526497-207.526497 207.526497 92.913133 207.526497 207.526497S627.758444 534.676721 513.144056 534.676721zM513.144056 154.20124399999997c-95.500051 0-172.948981 77.44893-172.948981 172.948981 0 95.532797 77.44893 172.948981 172.948981 172.948981 95.532797 0 172.948981-77.417207 172.948981-172.948981C686.09406 231.650173 608.676853 154.20124399999997 513.144056 154.20124399999997zM838.761112 630.458181L709.455117 630.458181l-41.444924 77.806063c-8.792247 20.670785-28.79379 33.938973-51.375088 33.938973L407.347498 742.203218c-22.401196 0-42.334177-13.126972-51.211359-33.56342l-42.457997-78.181617L184.247304 630.458181c-48.312332 0-86.155219-38.568411-86.155219-87.799672l0-431.016571c0-49.231261 37.842887-87.799672 86.155219-87.799672l654.514831 0c49.301869 0 89.435938 39.387056 89.435938 87.799672l0 431.016571C928.19705 591.071126 888.062981 630.458181 838.761112 630.458181zM880.30632 111.64193899999998c0-21.630646-19.019169-39.908942-41.545208-39.908942L184.247304 71.73299699999995c-21.465894 0-38.264489 17.529235-38.264489 39.908942l0 431.016571c0 22.379707 16.798595 39.908942 38.264489 39.908942l157.913543 0 56.627718 104.261599 1.169639 2.486634c1.216711 3.031033 4.122901 4.996804 7.389294 4.996804l209.287607 0c3.235694 0 6.220678-2.02717 7.405667-5.034666l56.667627-106.71037 158.053736 0c22.526039 0 41.545208-18.278295 41.545208-39.908942L880.307344 111.64193899999998zM513.144056 422.931684c-52.910047 0-95.78146-42.885739-95.78146-95.78146 0-52.91721 42.871413-95.78146 95.78146-95.78146 52.91107 0 95.78146 42.86425 95.78146 95.78146C608.925516 380.04594499999996 566.05615 422.931684 513.144056 422.931684zM513.144056 263.29591700000003c-35.263132 0-63.854307 28.591175-63.854307 63.854307s28.591175 63.854307 63.854307 63.854307 63.854307-28.591175 63.854307-63.854307S548.408211 263.29591700000003 513.144056 263.29591700000003z"  horiz-adv-x="1024" />

    
    <glyph glyph-name="message-f" unicode="&#59257;" d="M512 828.832c-247.04 0-448-172.256-448-384 0-116.512 63.04-226.048 174.048-301.408l84.16-52.032c-3.68-23.552-18.752-74.496-33.44-115.936-4.256-12.064-0.928-25.504 8.448-34.176 6.016-5.568 13.824-8.512 21.728-8.512 4.416 0 8.832 0.896 13.024 2.752 36.416 16.224 147.456 68.96 187.584 125.376C763.136 64.38400000000001 960 235.29600000000005 960 444.832 960 656.576 759.04 828.832 512 828.832zM580.224 352.03200000000004L384.96 352.03200000000004c-17.664 0-32 14.336-32 32s14.336 32 32 32l195.264 0c17.696 0 32-14.336 32-32S597.92 352.03200000000004 580.224 352.03200000000004zM640.928 480.032L384.96 480.032c-17.664 0-32 14.336-32 32s14.336 32 32 32l255.968 0c17.696 0 32-14.336 32-32S658.624 480.032 640.928 480.032z"  horiz-adv-x="1024" />

    
    <glyph glyph-name="lock" unicode="&#58978;" d="M742.4 486.4l-25.6 0 0 76.8c0 127.0272-103.3728 230.4-230.4 230.4s-230.4-103.3728-230.4-230.4l0-76.8-25.6 0c-42.3424 0-76.8-34.4576-76.8-76.8l0-409.6c0-42.3424 34.4576-76.8 76.8-76.8l512 0c42.3424 0 76.8 34.4576 76.8 76.8l0 409.6c0 42.3424-34.4576 76.8-76.8 76.8zM307.2 563.2c0 98.816 80.384 179.2 179.2 179.2s179.2-80.384 179.2-179.2l0-76.8-358.4 0 0 76.8zM768 0c0-14.1312-11.4688-25.6-25.6-25.6l-512 0c-14.1312 0-25.6 11.4688-25.6 25.6l0 409.6c0 14.1312 11.4688 25.6 25.6 25.6l512 0c14.1312 0 25.6-11.4688 25.6-25.6l0-409.6z"  horiz-adv-x="1024" />

    
    <glyph glyph-name="upload" unicode="&#58891;" d="M480.485369 223.99587499999996c0 17.599794 14.398831 31.999625 31.998625 31.999625 17.600794 0 31.999625-14.399831 31.999625-31.999625l0-319.99625c0-17.600794-14.398831-31.999625-31.999625-31.999625-17.599794 0-31.999625 14.399831-31.999625 31.999625L480.485369 223.99587499999996zM490.133256 246.367613c12.443854 12.444854 32.809616 12.444854 45.25347 0.001 12.443854-12.444854 12.443854-32.810616-0.001-45.25547L412.878162 78.60557900000003c-12.443854-12.444854-32.809616-12.444854-45.25347-0.001-12.443854 12.444854-12.443854 32.810616 0 45.25547L490.133256 246.367613zM489.624262 201.114143c-12.444854 12.443854-12.444854 32.808616 0 45.25347l0 0c12.444854 12.444854 32.810616 12.443854 45.25447-0.001L657.385296 123.85904900000003c12.444854-12.444854 12.444854-32.809616 0.001-45.25447-12.444854-12.444854-32.809616-12.443854-45.25447 0L489.624262 201.114143zM826.91031 569.17083c-26.958684 149.445249-157.686152 262.81692-314.89531 262.81692-157.212158 0-287.939626-113.374671-314.89631-262.82292C84.140014 542.551142 0.042999 441.099331 0.042999 319.99474999999995c0-141.377343 114.602657-255.985 255.976-255.997 17.672793 0 31.999625 14.326832 31.999625 31.999625s-14.326832 31.999625-31.999625 31.999625c-51.276399 0.006-99.482834 19.976766-135.741409 56.234341C84.013015 220.494916 64.04225 268.70935099999997 64.04225 319.99474999999995c0 22.249739 3.754956 44.021484 11.161869 64.712242 7.159916 20.000766 17.568794 38.595548 30.938637 55.268352 26.782686 33.397609 64.304246 57.15633 105.650762 66.896216l40.856521 9.624887 7.450913 41.308516c10.502877 58.228318 41.365515 111.468694 86.903982 149.911243 22.610735 19.088776 48.055437 33.977602 75.624114 44.251481 28.523666 10.629875 58.597313 16.020812 89.385953 16.020812 30.787639 0 60.861287-5.389937 89.384953-16.020812 27.568677-10.27388 53.012379-25.162705 75.624114-44.250481 45.536466-38.44255 76.400105-91.680926 86.903982-149.909243l7.451913-41.312516 40.861521-9.621887c41.351515-9.736886 78.876076-33.493607 105.662762-66.894216 13.370843-16.672805 23.781721-35.268587 30.941637-55.270352 7.406913-20.691758 11.162869-42.466502 11.162869-64.717242 0-51.281399-19.969766-99.494834-56.228341-135.757409-36.260575-36.262575-84.47101-56.235341-135.746409-56.240341l-0.021 0c-17.672793 0-31.999625-14.326832-31.999625-31.999625s14.326832-31.999625 31.999625-31.999625l0.021 0c141.373343 0.013 255.975 114.620657 255.975 255.997C1024.008 441.107331 939.899986 542.5651419999999 826.91031 569.17083z"  horiz-adv-x="1025" />

    
    <glyph glyph-name="unlock" unicode="&#59053;" d="M248.071424 516.0167329999999c-43.48642 0-78.862115-35.373649-78.862115-78.861092l0-420.593174c0-43.485397 35.375695-78.861092 78.862115-78.861092l525.736862 0c43.48642 0 78.861092 35.375695 78.861092 78.861092L852.669378 437.15564c0 43.487444-35.374672 78.861092-78.861092 78.861092l-26.28669 0 0 78.861092c0 130.432655-106.171088 236.582253-236.579183 236.582253-130.460284 0-236.582253-106.149599-236.582253-236.582253l0 0c2.62171-28.302603 45.856397-33.419134 52.573379 0l0 0c0 101.477182 82.505086 184.008874 184.008874 184.008874 101.450577 0 184.007851-82.531692 184.007851-184.008874l0-78.861092M800.095999 16.56349c0-14.475689-11.806907-26.28669-26.287713-26.28669L248.071424-9.72320000000002c-14.529925 0-26.28669 11.809977-26.28669 26.28669L221.784734 437.15564c0 14.503319 11.756765 26.287713 26.28669 26.287713l525.736862 0c14.480806 0 26.287713-11.784394 26.287713-26.287713L800.095999 16.56349zM510.936273 59.775664000000006L510.936273 59.775664000000006c-18.524912 0-33.515325 17.46886-33.515325 38.891775l0 77.780481c0 21.418822 14.990413 38.885636 33.515325 38.885636l0 0c18.529005 0 33.520441-17.466814 33.520441-38.885636l0-77.780481C544.456714 77.24452399999996 529.465279 59.775664000000006 510.936273 59.775664000000006z"  horiz-adv-x="1024" />

    
    <glyph glyph-name="wepay2" unicode="&#58923;" d="M896.002399 896L127.997601 896C57.597193 896 0 838.402807 0 768.002399l0-768.004799c0-70.400408 57.597193-127.997601 127.997601-127.997601l768.004799 0c70.400408 0 127.997601 57.597193 127.997601 127.997601L1024 768.002399C1024 838.402807 966.402807 896 896.002399 896L896.002399 896zM512.003199 108.79613700000004c-44.800376 0-83.203623 6.400968-121.603031 19.205463-25.600032-12.803215-63.99944-44.800376-76.801376-51.201344-25.601312-12.803215-19.199064 12.796817-19.199064 12.796817l12.801936 76.801376c-76.802655 51.201344-121.603031 134.399848-121.603031 224.0006 0 159.99988 147.197945 288.002599 326.403287 288.002599 108.798536 0 211.196105-51.201344 268.799696-121.601752L460.801856 409.598112c0 0-25.601312-12.798096-51.201344 6.400968l-51.201344 38.399408c0 0-38.399408 32.001-19.200344-19.200344l51.201344-115.200784c0 0 6.400968-31.995881 44.800376-12.798096 32.002279 12.798096 268.799696 159.99988 371.201104 217.598352 19.199064-38.399408 31.997161-83.198504 31.997161-127.997601C838.400088 243.201104 691.202143 108.79613700000004 512.003199 108.79613700000004L512.003199 108.79613700000004zM512.003199 108.79613700000004"  horiz-adv-x="1024" />

    
    <glyph glyph-name="express" unicode="&#58921;" d="M256.756735 95.42969900000003l-22.404266 245.563812L76.893274 475.958388l870.213451 196.611913-426.115957-557.220924-124.891452 93.675496L256.756735 95.42969900000003zM127.250172 463.46382l129.432885-110.940718 19.288299-211.386408 119.524211 97.439216 121.014144-90.753957 373.087207 487.887836L127.250172 463.46382zM270.793426 107.94268699999998l-38.134529 245.73982 680.855756 311.048245 11.136641-20.380166L343.537194 270.529669 270.793426 107.94268699999998zM258.377652 339.834104l23.341614-150.450571 43.38716 96.983845 2.916423 1.870604L775.434831 576.0469439999999 258.377652 339.834104zM342.053029 287.14144899999997l61.47692-54.649807-15.474174-17.407282-61.47692 54.649807 15.474174 17.407282Z"  horiz-adv-x="1024" />

    
    <glyph glyph-name="home-f" unicode="&#58887;" d="M854.08768 392.8832l0-342.08768c0-44.450816-36.040704-80.490496-80.49152-80.490496L612.614144-29.694975999999997 612.614144 231.90016000000003c0 44.450816-36.03968 80.490496-80.490496 80.490496l-40.245248 0c-44.450816 0-80.49152-36.03968-80.49152-80.490496L411.38688-29.696000000000026 250.40384-29.696000000000026c-44.450816 0-80.490496 36.03968-80.490496 80.490496l0 342.08768L49.175552 392.882176 512 835.5840000000001l462.824448-442.701824L854.08768 392.882176z"  horiz-adv-x="1024" />

    
    <glyph glyph-name="people" unicode="&#58961;" d="M875.466 221.247c-34.694 34.695-75.852 60.581-120.75 76.543 23.679 11.749 45.549 27.397 64.787 46.636 46.478 46.477 72.075 108.272 72.075 174.001s-25.597 127.524-72.075 174.002c-46.478 46.477-108.272 72.074-174.001 72.074-48.096 0-94.072-13.724-133.492-39.289-39.425 25.566-85.409 39.289-133.508 39.289-65.729 0-127.525-25.597-174.002-72.074-46.478-46.477-72.075-108.272-72.075-174.002 0-65.73 25.596-127.524 72.075-174.001 19.239-19.238 41.108-34.887 64.789-46.636-44.9-15.963-86.056-41.848-120.752-76.543C89.998 162.709 56.548 85.784 53.53 3.496l43.099 0c2.995 70.777 31.963 136.894 82.365 187.293 49.325 49.325 113.699 78.118 182.765 82.134 5.55-0.37 11.129-0.571 16.741-0.571s11.193 0.201 16.742 0.571c69.066-4.016 133.441-32.809 182.766-82.134 50.401-50.399 79.369-116.516 82.365-187.293l43.098 0c-3.017 82.288-36.467 159.213-95.005 217.751-14.726 14.726-30.619 27.858-47.465 39.325 21.792 6.812 44.504 10.998 67.758 12.351 5.55-0.37 11.129-0.571 16.741-0.571s11.193 0.201 16.742 0.571c69.066-4.016 133.441-32.809 182.766-82.134 50.401-50.399 79.369-116.516 82.365-187.293l43.098 0C967.454 85.784 934.004 162.709 875.466 221.247zM394.945 316.095c-5.457 0.269-10.939 0.407-16.443 0.407-5.503 0-10.984-0.139-16.443-0.407-104.275 8.398-186.56 95.933-186.56 202.333 0 111.937 91.066 203.004 203.003 203.004 111.937 0 203.004-91.068 203.004-203.004C581.506 412.028 499.22 324.493 394.945 316.095zM487.716 297.79c8.336 4.136 16.442 8.766 24.293 13.854 7.848-5.086 15.946-9.721 24.279-13.854-8.225-2.924-16.317-6.192-24.272-9.776C504.052 291.601 495.947 294.863 487.716 297.79zM661.945 316.095c-5.457 0.269-10.939 0.407-16.443 0.407s-10.984-0.139-16.443-0.407c-31.92 2.57-60.759 6.907-86.219 19.184 3.287 2.955 6.514 5.998 9.663 9.147 46.478 46.477 72.075 108.272 72.075 174.001s-25.597 127.524-72.075 174.002c-1.401 1.401-2.817 2.781-4.246 4.144 28.894 15.84 62.034 24.858 97.245 24.858 111.937 0 203.004-91.068 203.004-203.004C848.506 412.028 766.22 324.493 661.945 316.095zM834.074 63.426"  horiz-adv-x="1024" />

    
    <glyph glyph-name="arrow-up" unicode="&#58973;" d="M966.4 227.20000000000005l-435.2 432c-9.6 9.6-25.6 9.6-35.2 0l-441.6-432c-9.6-9.6-9.6-25.6 0-35.2 9.6-9.6 25.6-9.6 35.2 0l425.6 416 416-416c9.6-9.6 25.6-9.6 35.2 0S976 217.60000000000002 966.4 227.20000000000005z"  horiz-adv-x="1024" />

    
    <glyph glyph-name="arrow-down" unicode="&#58974;" d="M966.4 572.8c-9.6 9.6-25.6 9.6-35.2 0l-416-416-425.6 416c-9.6 9.6-25.6 9.6-35.2 0-9.6-9.6-9.6-25.6 0-35.2l441.6-432c9.6-9.6 25.6-9.6 35.2 0l435.2 432C976 550.4 976 563.2 966.4 572.8z"  horiz-adv-x="1024" />

    
    <glyph glyph-name="arrow-right" unicode="&#58975;" d="M761.6 406.4l-432 435.2c-9.6 9.6-25.6 9.6-35.2 0-9.6-9.6-9.6-25.6 0-35.2l416-416-416-425.6c-9.6-9.6-9.6-25.6 0-35.2s25.6-9.6 35.2 0l432 441.6C771.2 380.79999999999995 771.2 396.8 761.6 406.4z"  horiz-adv-x="1024" />

    
    <glyph glyph-name="arrow-left" unicode="&#58976;" d="M729.6-35.200000000000045l-416 425.6 416 416c9.6 9.6 9.6 25.6 0 35.2-9.6 9.6-25.6 9.6-35.2 0l-432-435.2c-9.6-9.6-9.6-25.6 0-35.2l432-441.6c9.6-9.6 25.6-9.6 35.2 0C739.2-60.799999999999955 739.2-44.799999999999955 729.6-35.200000000000045z"  horiz-adv-x="1024" />

    
    <glyph glyph-name="info" unicode="&#58981;" d="M585.6-9.600000000000023L585.6-9.600000000000023c25.6 32 38.4 44.8 41.6 44.8 208 38.4 345.6 198.4 345.6 396.8 3.2 227.2-204.8 406.4-460.8 406.4s-464-179.2-464-406.4c0-198.4 140.8-358.4 345.6-396.8 3.2 0 16-12.8 41.6-44.8l0 0c32-41.6 51.2-64 73.6-64S550.4-51.200000000000045 585.6-9.600000000000023M620.8 92.79999999999995c-19.2-3.2-32-19.2-67.2-64l0 0c-22.4-25.6-41.6-44.8-41.6-44.8l-9.6 9.6c-6.4 6.4-16 19.2-25.6 32-38.4 48-51.2 64-70.4 67.2-185.6 32-307.2 172.8-307.2 345.6 0 192 185.6 352 416 352s416-160 416-352C928 262.4 806.4 124.79999999999995 620.8 92.79999999999995zM281.6 425.6a1.5 1.4 90 1 1 89.6 0 1.5 1.4 90 1 1-89.6 0ZM467.2 425.6a1.5 1.4 90 1 1 89.6 0 1.5 1.4 90 1 1-89.6 0ZM652.8 425.6a1.5 1.4 90 1 1 89.6 0 1.5 1.4 90 1 1-89.6 0Z"  horiz-adv-x="1024" />

    
    <glyph glyph-name="wepay" unicode="&#58910;" d="M537.622015 485.691831M316.914611 575.889221c-19.899085 0-39.991474-13.179462-39.991474-33.147073 0-19.835673 20.03-33.141959 39.991474-33.141959 19.960451 0 33.141959 13.374812 33.141959 33.210485C350.055547 562.773171 336.811651 575.889221 316.914611 575.889221L316.914611 575.889221zM502.466215 509.664624c20.03 0 33.210485 13.3114 33.210485 33.141959 0 19.967611-13.180485 33.147073-33.210485 33.147073-19.835673 0-39.732712-13.11605-39.732712-33.147073C462.733503 522.976024 482.693954 509.664624 502.466215 509.664624L502.466215 509.664624zM588.659445 383.487079c-13.180485 0-26.491884-13.180485-26.491884-26.428472 0-13.369698 13.3114-26.484725 26.491884-26.484725 20.087275 0 33.208439 13.11605 33.208439 26.484725C621.867884 370.306594 608.810133 383.487079 588.659445 383.487079L588.659445 383.487079zM734.604138 383.487079c-13.11605 0-26.427449-13.242874-26.427449-26.48677 0-13.374812 13.3114-26.490861 26.427449-26.490861 19.962497 0 33.205371 13.11605 33.205371 26.490861C767.746096 370.306594 754.503223 383.487079 734.604138 383.487079L734.604138 383.487079zM827.32471 894.977226L197.701132 894.977226c-108.570496 0-196.678359-88.113999-196.678359-196.678359l0-629.618463c0-108.57561 88.044451-196.680404 196.678359-196.680404L827.32471-128c96.745187 0 177.243613 69.948516 193.678563 161.95826l3.06423 160.683884L1024.067503 698.298868C1024.067503 806.869364 935.958618 894.977226 827.32471 894.977226L827.32471 894.977226zM403.09966 237.60375299999998c-33.141959 0-59.695209 6.656211-92.842282 13.242874l-92.710344-46.453358 26.554273 79.726232c-66.41381 46.452336-106.153682 106.217094-106.153682 179.033467 0 126.173454 119.396556 225.476598 265.215447 225.476598 130.4016 0 244.548259-79.404059 267.580099-186.194928-8.571866 0.963453-17.081343 1.538252-25.589798 1.538252-125.989355 0-225.35591-93.995971-225.419322-209.801568 0-19.393835 3.006955-37.947972 8.19344-55.667527-8.256852-0.516501-16.507567-0.894927-24.826809-0.894927L403.100682 237.60375299999998zM794.10502 144.63464699999997l20.03-66.2921-72.74887 39.934199c-26.490861-6.656211-53.170936-13.247988-79.530882-13.247988-126.177545 0-225.480689 86.122659-225.480689 192.334639 0 106.021744 99.303144 192.404187 225.480689 192.404187 119.138817 0 225.287384-86.382443 225.287384-192.404187C887.078217 237.60375299999998 847.408917 184.62100699999996 794.10502 144.63464699999997L794.10502 144.63464699999997zM794.10502 144.63464699999997"  horiz-adv-x="1025" />

    
    <glyph glyph-name="location" unicode="&#58962;" d="M511.998977 830.709995c-173.638689 0-314.904063-138.294716-314.904063-308.281225 0-77.603449 31.020504-185.005574 85.10633-294.67023 53.746088-108.971877 124.852566-209.287607 195.185424-275.377838 8.955976-9.602705 21.51092-15.08865 34.612309-15.08865 12.913101 0 25.359574 5.358031 34.296107 14.736633 149.549038 140.014894 280.608979 406.358985 280.608979 570.401108C826.904063 692.415278 685.637666 830.709995 511.998977 830.709995zM517.467525-18.127612999999997l-1.128707-1.13894c-0.816598-0.8913-2.232854-1.952468-4.339842-1.952468-2.245134 0-3.695159 1.251503-4.361331 1.997494l-1.294482 1.327228C366.207519 113.42044499999997 238.584863 370.958986 238.584863 522.4277460000001c0 147.109476 122.652458 266.791276 273.414113 266.791276 150.761656 0 273.415137-119.6818 273.415137-266.791276C785.414113 370.51691800000003 657.700383 112.86990600000001 517.467525-18.127612999999997zM513.044796 714.383616c-91.091648 0-165.199483-74.112951-165.199483-165.210739 0-91.076298 74.107835-165.172877 165.199483-165.172877 91.083461 0 165.184133 74.096579 165.184133 165.172877C678.228929 640.270664 604.128257 714.383616 513.044796 714.383616zM513.044796 425.48995c-68.213591 0-123.709533 55.484685-123.709533 123.682927 0 68.219731 55.495942 123.720789 123.709533 123.720789 68.205405 0 123.694183-55.501058 123.694183-123.720789C636.738979 480.974635 581.2502 425.48995 513.044796 425.48995z"  horiz-adv-x="1024" />

    
    <glyph glyph-name="contact" unicode="&#58967;" d="M586.945923 382.418992c55.067176 27.962865 92.91211 85.125773 92.91211 150.998039 0 93.338828-75.937506 169.276335-169.277358 169.276335s-169.275311-75.937506-169.275311-169.276335c0-65.872267 37.844933-123.034151 92.911086-150.998039-95.652524-32.016181-164.778904-122.45496-164.778904-228.743728 0-11.31572 9.17394-20.491707 20.491707-20.491707s20.491707 9.174963 20.491707 20.491707c0 110.36869 89.791026 200.160739 200.160739 200.160739S710.741413 264.043954 710.741413 153.67526399999997c0-11.31572 9.17394-20.491707 20.491707-20.491707s20.491707 9.174963 20.491707 20.491707C751.723803 259.964032 682.598446 350.401788 586.945923 382.418992zM382.287753 533.417031c0 70.742181 57.552787 128.293945 128.292921 128.293945 70.742181 0 128.293945-57.552787 128.293945-128.293945 0-70.741157-57.552787-128.292921-128.293945-128.292921C439.84054 405.123087 382.287753 462.675874 382.287753 533.417031zM827.871087 699.872111C743.498468 784.2426829999999 631.320573 830.709995 512 830.709995S280.500509 784.243707 196.128913 699.872111C111.756293 615.498468 65.291029 503.321596 65.291029 384.001023s46.465265-231.499491 130.837884-315.872111 196.550515-130.837884 315.871087-130.837884 231.498468 46.465265 315.871087 130.837884S958.708971 264.68045099999995 958.708971 384.001023 912.243707 615.499491 827.871087 699.872111zM512-21.72658100000001c-223.718271 0-405.726581 182.007287-405.726581 405.727605 0 223.718271 182.00831 405.726581 405.726581 405.726581s405.726581-182.007287 405.726581-405.726581C917.726581 160.280706 735.718271-21.72658100000001 512-21.72658100000001z"  horiz-adv-x="1024" />

    
    <glyph glyph-name="view" unicode="&#58977;" d="M957.205735 391.755638c-1.209548 3.007497-30.433126 74.467015-99.742678 146.440234-40.803311 42.37204-87.132476 76.159564-137.701199 100.4242-63.234183 30.342052-133.13623 45.728484-207.761857 45.728484s-144.527674-15.386432-207.762881-45.728484c-50.567699-24.264637-96.896864-58.052161-137.699152-100.4242-69.310575-71.973218-98.534154-143.43376-99.744725-146.440234-2.431376-6.042623-1.889023-12.874215 1.465374-18.458397 1.775436-2.954285 44.338834-73.16844 119.79948-144.212496 44.560892-41.952484 91.40171-75.439156 139.216715-99.529831 60.458977-30.459732 122.609479-45.904493 184.726212-45.904493s124.267235 15.44476 184.726212 45.904493c47.816029 24.090675 94.653777 57.577347 139.217738 99.529831 75.459622 71.044056 118.024044 141.258211 119.797433 144.212496C959.096804 378.88244599999996 959.638133 385.714038 957.205735 391.755638zM806.672276 258.603035c-41.578977-39.021735-85.042885-70.046333-129.186268-92.209098-54.43068-27.330462-110.10877-41.189098-165.487032-41.189098s-111.056352 13.858636-165.487032 41.189098c-44.143383 22.162766-87.60729 53.18634-129.185244 92.209098-56.298214 52.835346-93.992721 106.371656-107.702977 127.124306 9.878998 20.700461 37.286208 72.181973 86.843904 123.644041 37.353746 38.790468 79.660294 69.670779 125.745912 91.784426 57.579393 27.629267 121.432677 41.637306 189.784414 41.637306 68.004837 0 131.561361-13.868869 188.908464-41.21775 45.971008-21.927405 88.207971-52.568263 125.531018-91.074252 50.006927-51.589982 77.910441-103.898325 87.921445-124.793214C900.640438 364.94296899999995 862.954117 311.420985 806.672276 258.603035zM512 581.508329c-107.583251 0-195.108676-87.526449-195.108676-195.108676 0-107.585297 87.526449-195.110723 195.108676-195.110723S707.108676 278.814356 707.108676 386.399653C707.108676 493.98188 619.582227 581.508329 512 581.508329zM512 232.843348c-84.671425 0-153.554258 68.88488-153.554258 153.556305s68.882833 153.554258 153.554258 153.554258 153.554258-68.882833 153.554258-153.554258S596.670401 232.843348 512 232.843348z"  horiz-adv-x="1024" />

    
    <glyph glyph-name="place" unicode="&#59095;" d="M664.343687 567.124737c0 82.751702-67.313082 150.073994-150.051481 150.073994-82.744539 0-150.062737-67.322291-150.062737-150.073994 0-82.73226 67.318198-150.039201 150.062737-150.039201C597.030605 417.085536 664.343687 484.392478 664.343687 567.124737zM404.243811 567.124737c0 60.686151 49.366338 110.058628 110.048395 110.058628 60.673871 0 110.036116-49.372477 110.036116-110.058628 0-60.667731-49.362244-110.024859-110.036116-110.024859C453.610148 457.100902 404.243811 506.457006 404.243811 567.124737zM854.769714 155.197944c-45.598524 17.971303-105.630782 31.79924-175.007873 40.427758 71.163783 117.373221 120.31318 251.488755 120.31318 347.248725 0 154.791435-128.627543 280.723589-286.730397 280.723589S226.615251 697.666886 226.615251 542.87545c0-70.542636 28.17162-168.121022 77.29134-267.715321 13.411451-27.192316 28.02017-53.784974 43.474141-79.3093-70.082148-8.607028-130.701784-22.511713-176.680978-40.619116-61.159942-24.089651-92.171236-53.972239-92.171236-88.820931 0-42.140773 46.952358-77.92272 135.780453-103.476723 79.973426-23.006993 185.940876-35.677571 298.386878-35.677571 112.442932 0 218.411405 12.670577 298.385854 35.677571 88.829118 25.555026 135.780453 61.33595 135.780453 103.476723C946.861132 101.24412400000006 915.877467 131.11647900000003 854.769714 155.197944zM266.630616 542.87545c0 132.726907 110.674659 240.708224 246.712985 240.708224s246.715031-107.981317 246.715031-240.708224c0-94.172823-54.260811-233.262648-129.251759-349.664751-1.7519-1.815345-3.169179-3.964288-4.140297-6.361895-33.43653-51.011814-70.787206-97.368608-109.181655-133.234467l-1.088798-1.095961c-0.578168-0.633427-1.578961-1.385557-3.053546-1.385557-1.488911 0-2.485611 0.765433-3.059686 1.411139l-1.248434 1.280156C382.169049 172.70466599999997 266.630616 405.803585 266.630616 542.87545zM800.018739 1.3899059999999963c-76.476789-22.002107-178.517813-34.118052-287.322891-34.118052-108.807125 0-210.846102 12.115945-287.323914 34.118052-78.850859 22.682605-106.828051 49.202609-106.828051 65.020876 0 27.437909 78.523401 73.447802 252.695233 91.89392 34.644031-51.954279 72.376401-97.909937 109.87341-133.151579 8.345062-8.933463 20.033265-14.034645 32.231075-14.034645 12.023848 0 23.614837 4.986571 31.94148 13.70821 39.065737 36.579103 76.732615 82.664721 110.585631 133.293819 172.969447-18.568914 250.975055-64.373123 250.975055-91.709725C906.845767 50.59149100000002 878.868575 24.072510999999963 800.018739 1.3899059999999963z"  horiz-adv-x="1024" />

    
    <glyph glyph-name="plan" unicode="&#59116;" d="M525.341866-17.349901000000045l-363.058806 0c-11.033287 0-20.008706 8.976442-20.008706 20.008706L142.274354 771.711276c0 11.033287 8.975419 20.008706 20.008706 20.008706l631.496581 0c11.032264 0 20.008706-8.975419 20.008706-20.008706l0-363.193883c0-11.050684 8.959046-20.008706 20.008706-20.008706 11.04966 0 20.008706 8.958022 20.008706 20.008706L853.80576 771.711276c0 33.098839-26.928303 60.027142-60.027142 60.027142L162.28306 831.738417c-33.098839 0-60.027142-26.928303-60.027142-60.027142l0-769.05247c0-33.098839 26.928303-60.027142 60.027142-60.027142l363.058806 0c11.050684 0 20.008706 8.959046 20.008706 20.008706C545.350572-26.30894699999999 536.39255-17.349901000000045 525.341866-17.349901000000045zM715.324802 691.463604c0 11.050684-8.959046 20.008706-20.008706 20.008706L246.960625 711.47231c-11.050684 0-20.008706-8.958022-20.008706-20.008706 0-11.050684 8.958022-20.008706 20.008706-20.008706l448.355471 0C706.365756 671.453874 715.324802 680.411897 715.324802 691.463604zM467.63456 567.7274649999999L246.960625 567.7274649999999c-11.050684 0-20.008706-8.958022-20.008706-20.008706 0-11.050684 8.958022-20.008706 20.008706-20.008706L467.63456 527.710053c11.050684 0 20.008706 8.958022 20.008706 20.008706C487.643266 558.769442 478.685243 567.7274649999999 467.63456 567.7274649999999zM467.63456 423.98262L246.960625 423.98262c-11.050684 0-20.008706-8.958022-20.008706-20.008706s8.958022-20.008706 20.008706-20.008706L467.63456 383.96520799999996c11.050684 0 20.008706 8.958022 20.008706 20.008706S478.685243 423.98262 467.63456 423.98262zM884.388289 352.33379l-131.218554 0L753.169735 539.833161c0 47.832402-38.915311 86.748736-86.74976 86.748736l-0.73678 0c-48.091298 0-87.216387-39.125089-87.216387-87.216387l0-201.644533c-13.299911-7.020904-25.061792-16.138562-34.95614-26.859741-33.55114 21.274536-78.616522 17.316387-107.854427-11.921517-33.843806-33.846876-33.843806-88.918145 0.001023-122.763998l93.650937-93.650937c1.49505-1.49505 3.170203-2.698458 4.953825-3.621481 12.707416-12.716626 28.873608-21.491477 45.409213-28.609595l-0.846274-94.909603c-0.047072-5.336542 2.039449-10.471492 5.79703-14.263865 3.75758-3.790326 8.873088-5.922896 14.211676-5.922896l268.086781 0c10.930957 0 19.838837 8.771781 20.006659 19.701714l1.418302 92.293009c21.959128 1.295506 41.312918 5.994528 52.861952 22.225187 11.745509 16.505929 11.745509 38.811957 11.745509 75.768661L952.952874 283.76920399999995C952.952874 321.576275 922.194336 352.33379 884.388289 352.33379zM463.954751 270.64325599999995c8.78406 8.78406 20.533662 13.623275 33.084513 13.623275 8.683776 0 16.983813-2.320858 24.184819-6.658653-7.985882-17.134239-12.344143-36.193317-12.344143-56.125275l0-61.934584-44.925189 44.925189C445.711248 222.715687 445.711248 252.39873 463.954751 270.64325599999995zM912.934438 145.184893c0-24.938995 0-46.477544-4.331655-52.568263-2.77316-3.89675-16.220427-5.871731-39.969317-5.871731-10.930957 0-19.838837-8.771781-20.006659-19.701714l-1.411139-91.828428L619.022479-24.785244000000034l0.785899 88.305185c0.072655 8.316409-5.006014 15.812127-12.755512 18.826787-44.567032 17.331737-58.154491 32.014134-58.154491 62.838164l0 76.29771c0 37.997406 22.662139 71.435982 57.734936 85.191264 8.454556 3.315512 13.617136 11.911284 12.570293 20.933775-0.11768 1.00284-0.264013 2.009773-0.412392 3.021823-0.124843 0.837064-0.294712 1.984191-0.304945 2.361791L618.486266 539.364487c0 26.025747 21.173229 47.198975 47.198975 47.198975l0.73678 0c25.76685 0 46.731324-20.963451 46.731324-46.731324l0-207.508078c0-11.050684 8.959046-20.008706 20.008706-20.008706l151.22726 0c15.739473 0 28.54615-12.806677 28.54615-28.547173L912.935462 145.184893z"  horiz-adv-x="1024" />

    
    <glyph glyph-name="alert" unicode="&#59380;" d="M512 832C264.32 832 64 631.6800000000001 64 384s200.32-448 448-448 448 200.32 448 448S759.68 832 512 832zM512 128c-35.2 0-64 28.8-64 64 0 35.2 28.8 64 64 64 35.2 0 64-28.8 64-64C576 156.79999999999995 547.2 128 512 128zM576 384c0-35.2-28.8-64-64-64C476.8 320 448 348.79999999999995 448 384L448 576c0 35.2 28.8 64 64 64 35.2 0 64-28.8 64-64L576 384z"  horiz-adv-x="1024" />

    
    <glyph glyph-name="radioactive" unicode="&#59231;" d="M512 85.333c-164.693 0-298.667 134.016-298.667 298.667s133.973 298.667 298.667 298.667c164.651 0 298.667-134.016 298.667-298.667s-134.016-298.667-298.667-298.667zM512 642.816c-142.72 0-258.859-116.096-258.859-258.816s116.139-258.816 258.859-258.816c142.763 0 258.816 116.181 258.816 258.816 0 142.763-116.053 258.816-258.816 258.816zM682.667 384c0-94.257-76.41-170.667-170.667-170.667s-170.667 76.41-170.667 170.667c0 94.257 76.41 170.667 170.667 170.667s170.667-76.41 170.667-170.667z"  horiz-adv-x="1024" />

    
    <glyph glyph-name="weixin-f" unicode="&#58895;" d="M843.854107 100.76931000000002l23.606651-78.616522-85.744873 47.359634c-31.218002-7.887644-62.661132-15.70775-93.737918-15.70775-148.71095 0-265.754666 102.121865-265.754666 228.069369 0 125.72033 117.043716 228.155327 265.754666 228.155327 140.42217 0 265.531586-102.434997 265.531586-228.155327C953.436898 211.01418 906.683061 148.18113300000005 843.854107 100.76931000000002zM605.189426 386.671852c-18.741853 0-33.933857-15.285125-33.933857-34.137495 0-18.856463 15.192004-34.140565 33.933857-34.140565 18.741853 0 33.93488 15.285125 33.93488 34.140565C639.123282 371.38672799999995 623.930255 386.671852 605.189426 386.671852zM777.721921 386.671852c-18.741853 0-33.933857-15.285125-33.933857-34.137495 0-18.856463 15.192004-34.140565 33.933857-34.140565 18.742876 0 33.93488 15.285125 33.93488 34.140565C811.656801 371.38672799999995 796.464797 386.671852 777.721921 386.671852zM402.615731 278.09292500000004c0-22.994714 3.542686-45.00296 9.650801-66.013483-9.727549-0.615007-19.457144-1.060145-29.254278-1.060145l0-0.005117-0.00614 0c-39.060621 0-70.353324 7.894807-109.429295 15.70161l-109.262496-55.085596 31.29168 94.539166C117.328195 321.254957 70.490447 392.127098 70.490447 478.471628c0 149.618623 140.731208 267.375583 312.589344 267.375583 153.702638 0 288.237727-94.163613 315.38297-220.799802-10.109242 1.149173-20.139689 1.824555-30.15888 1.824555C519.801686 526.870942 402.687362 415.414477 402.615731 278.09292500000004zM278.111089 615.68778c-23.404036 0-42.37511-19.087731-42.37511-42.629913 0-23.545252 18.971074-42.63196 42.37511-42.63196 23.405059 0 42.377156 19.086707 42.377156 42.63196C320.488245 596.600049 301.516148 615.68778 278.111089 615.68778zM498.688833 616.101195c-23.404036 0-42.37511-19.087731-42.37511-42.632983 0-23.543206 18.971074-42.629913 42.37511-42.629913 23.405059 0 42.377156 19.086707 42.377156 42.629913C541.065989 597.014488 522.093892 616.101195 498.688833 616.101195z"  horiz-adv-x="1024" />

    
    <glyph glyph-name="radio" unicode="&#58924;" d="M512 85.333c-164.693 0-298.667 134.016-298.667 298.667s133.973 298.667 298.667 298.667c164.651 0 298.667-134.016 298.667-298.667s-134.016-298.667-298.667-298.667zM512 642.816c-142.72 0-258.859-116.096-258.859-258.816s116.139-258.816 258.859-258.816c142.763 0 258.816 116.181 258.816 258.816 0 142.763-116.053 258.816-258.816 258.816z"  horiz-adv-x="1024" />

    
    <glyph glyph-name="article" unicode="&#58916;" d="M251.25 443.6l521.5 0 0-29.8-521.5 0 0 29.8ZM251.25 279.69899999999996l521.5 0 0-29.8-521.5 0 0 29.8ZM251.25 115.79999999999995l253.3 0 0-29.801-253.3 0 0 29.801ZM884.457 594.5930000000001l0 0.189-0.189 0L649.214 830.796 649.214 831l-29.8 0L610 831 139.5 831l0-894 744.957 0L884.457 555.408l0 39.068 0.043 0.059L884.457 594.5930000000001zM649.214 788.5550000000001l195.155-195.94-195.155 0.015L649.214 788.5550000000001zM854.656-33.200000000000045L169.3-33.200000000000045 169.3 801.2l450.114 0 0-208.571L619.414 577.7l0-14.9 235.242 0.015L854.656-33.200000000000045z"  horiz-adv-x="1024" />

    
    <glyph glyph-name="weixin" unicode="&#58908;" d="M498.816 550.944c26.336 0 43.936 17.632 43.936 43.904 0 26.56-17.568 43.744-43.936 43.744s-52.832-17.184-52.832-43.744C446.016 568.576 472.48 550.944 498.816 550.944zM253.088 638.592c-26.336 0-52.96-17.184-52.96-43.744 0-26.272 26.624-43.904 52.96-43.904 26.24 0 43.808 17.632 43.808 43.904C296.864 621.408 279.328 638.592 253.088 638.592zM1024 269.888c0 138.88-128.832 257.216-286.976 269.536 0.224 1.728 0.32 3.52-0.064 5.312-31.712 147.84-190.688 259.296-369.824 259.296C164.704 804.032 0 662.88 0 489.376c0-93.088 47.52-176.96 137.568-243.104l-31.392-94.368c-2.016-6.144-0.192-12.896 4.704-17.152 2.976-2.56 6.72-3.904 10.496-3.904 2.432 0 4.896 0.576 7.168 1.696L246.4 191.52l14.528-2.944c36.288-7.456 67.616-13.92 106.208-13.92 11.36 0 22.88 0.512 34.176 1.472 4.576 0.384 8.448 2.688 11.072 6.016 42.496-106.336 159.616-183.104 297.44-183.104 35.296 0 71.04 8.512 103.104 16.544l90.848-49.664c2.4-1.312 5.056-1.984 7.68-1.984 3.584 0 7.168 1.216 10.048 3.552 5.056 4.096 7.136 10.848 5.248 17.024l-23.2 77.152C981.344 123.136 1024 196.672 1024 269.888zM398.592 208.032c-10.4-0.896-20.96-1.344-31.424-1.344-35.328 0-65.216 6.112-99.776 13.248L247.296 224c-3.456 0.736-7.104 0.256-10.272-1.376l-88.288-44.192 22.944 68.928c2.24 6.752-0.224 14.112-6.016 18.176C76.96 327.36 32 402.688 32 489.376c0 155.84 150.336 282.656 335.136 282.656 163.36 0 308-99.392 337.856-231.584-171.296-2.24-309.888-122.656-309.888-270.56 0-21.504 3.264-42.336 8.768-62.432C402.208 207.872 400.448 208.192 398.592 208.032zM875.456 80.448c-5.344-4.032-7.616-10.976-5.696-17.376l15.136-50.336-62.112 33.984c-2.368 1.312-5.024 1.984-7.68 1.984-1.312 0-2.624-0.16-3.904-0.512-33.312-8.416-67.776-17.088-101.344-17.088-155.904 0-282.72 107.136-282.72 238.816 0 131.68 126.816 238.784 282.72 238.784 152.928 0 282.144-109.344 282.144-238.784C992 204.256 950.624 136.96 875.456 80.448zM612.992 384.032c-17.568 0-35.136-17.696-35.136-35.232 0-17.664 17.568-35.104 35.136-35.104 26.4 0 43.84 17.44 43.84 35.104C656.832 366.368 639.392 384.032 612.992 384.032zM806.016 384.032c-17.312 0-34.88-17.696-34.88-35.232 0-17.664 17.568-35.104 34.88-35.104 26.304 0 44.064 17.44 44.064 35.104C850.08 366.368 832.352 384.032 806.016 384.032z"  horiz-adv-x="1025" />

    
    <glyph glyph-name="closed" unicode="&#59064;" d="M682.025 333.041c-9.7 9.7-25.427 9.699-35.126 0.001l-100.315-100.314v590.124c0 13.718-11.121 24.837-24.837 24.837s-24.837-11.121-24.837-24.837v-590.113l-100.301 100.301c-9.7 9.7-25.427 9.699-35.126-0.001-9.7-9.699-9.7-25.427 0-35.126l138.87-138.869c4.849-4.849 11.207-7.275 17.564-7.275 0.356 0 0.709 0.036 1.063 0.051 0.91-0.101 1.831-0.163 2.768-0.163 0.939 0 1.86 0.062 2.77 0.164 0.358-0.015 0.715-0.051 1.074-0.051 6.355 0 12.714 2.426 17.564 7.275l138.87 138.869c9.698 9.699 9.698 25.427-0.001 35.126zM897.86 486.352c-26.106 19.455-60.42 30.17-96.627 30.17l-146.473-0.004c-13.665-0.062-24.725-11.152-24.725-24.833 0-13.68 11.060-24.771 24.725-24.833v-0.004h146.473c49.231 0 90.822-28.101 90.822-61.362v-396.442c0-33.261-41.593-61.362-90.822-61.362h-584.046c-49.231 0-90.822 28.101-90.822 61.362v396.442c0 33.261 41.593 61.362 90.822 61.362l166.007 0.005c0.038 0 0.075-0.005 0.113-0.005 13.718 0 24.837 11.121 24.837 24.837s-11.121 24.837-24.837 24.837c-0.038 0-0.075-0.004-0.113-0.005v0.005h-166.007c-36.206 0-70.523-10.716-96.627-30.17-28.291-21.085-43.872-49.806-43.872-80.868v-396.442c0-31.063 15.58-59.785 43.872-80.868 26.106-19.455 60.42-30.17 96.627-30.17h584.046c36.205 0 70.522 10.716 96.627 30.17 28.291 21.085 43.872 49.806 43.872 80.868v396.442c0 31.063-15.581 59.785-43.872 80.868z"  horiz-adv-x="1024" />

    
    <glyph glyph-name="yoga" unicode="&#58915;" d="M852.405807-6.140818999999965c-3.685387 19.547838-19.352529 24.388093-36.276439 29.202873-47.672268 13.535731-96.694712 15.938876-145.598273 18.741129-19.216662 1.103918-29.856732 10.020177-38.823942 25.976036-27.725321 49.311161-26.460061 100.388592-11.30242 152.476531 8.61905 29.54254 21.203715 57.97267 25.424077 88.738012 12.593155 91.387415 25.050444 182.800304 37.465274 274.213194 2.912645 21.407515-4.86573 38.756008-19.522363 54.287283-27.41113 29.058515-53.166382 59.747431-81.290813 88.075662-33.932736 34.170503-49.897087 75.669323-57.556578 122.025381-2.955103 17.934419-0.874642 45.005882-19.870521 48.29216-9.536152 1.638893-14.096182-29.916174-16.694634-47.782659-8.135026-55.807293-26.867662-105.831756-70.073309-145.301064-25.721286-23.504959-48.130818-50.627371-72.077344-76.085415-12.678072-13.47629-16.643685-29.398182-17.569277-47.83361-2.046494-40.980827 14.495291-78.369675 19.972421-117.796526 8.3643-60.14654 13.815957-120.845038 30.060532-179.573467 13.518748-48.895069 33.159994-97.068345 24.031443-148.943993-15.038758-85.468717-32.005126-117.703118-111.453245-101.611393-22.859591 4.627963-46.585333 0.772742-69.512858-4.016562-27.368671-5.697914-45.85505-25.508994-50.151837-52.461573-3.889188-24.413568 7.302841-44.827557 32.242892-59.288881 14.631157-8.483184 30.544557-13.408356 46.941983-16.473851 81.902213-15.310491 164.178059-27.283754 247.821066-26.697828 63.967794 3.175886 127.952571 6.309315 191.911873 9.553135 14.29149 0.730285 26.341178 5.944173 31.826801 20.091304 4.330755 11.175046 12.754497 13.128131 23.2587 15.149149 30.315283 5.833782 60.307882 13.365897 85.791401 32.234401C846.342751-39.869755000000055 856.074211-25.671673000000055 852.405807-6.140818999999965zM595.60904 447.807185c-7.362283 11.446779-6.963174 20.430971-5.392214 27.538504 7.200941 32.37876-6.852783 60.409782-16.966369 89.043712-11.259963 31.852276-38.696566 53.395657-63.449802 52.249281-25.08441-1.154868-51.374639-24.362618-59.433238-56.868752-9.154027-36.921807-14.588699-74.675797-22.936016-113.907339-3.795779 18.44392-7.710442 36.870856-11.293929 55.365726-1.103918 5.697914 0.407601 12.499747-2.156885 17.22961-23.581384 43.434921-5.332773 76.637374 20.634772 112.557163 23.649317 32.718427 38.051199 71.975444 58.414238 107.266848 14.588699 25.262735 18.876995 24.354127 35.342355 0.322684 21.305615-31.096517 30.255841-69.801575 53.293757-98.571372 33.525136-41.90642 40.199593-83.804348 22.757691-133.107018C598.326376 489.671146 598.716993 470.123309 595.60904 447.807185z"  horiz-adv-x="1024" />

    
    <glyph glyph-name="picture" unicode="&#58989;" d="M854.975 726.652l-685.712 0c-43.724 0-79.137-35.414-79.137-79.106l0-527.473c0-43.692 35.414-79.138 79.137-79.138l685.712 0c43.692 0 79.137 35.446 79.137 79.138l0 527.473c-0.032 43.692-35.477 79.106-79.137 79.106l0 0zM868.154 200.79999999999995l-165.543 220.73c0 0-9.611 17.853-43.398 17.853-38.335 0-49.861-17.301-49.861-17.301l-144.995-223.811c0 0-7.887-14.996-27.237-14.996-20.255 0-29.928 14.996-29.928 14.996l-76.249 87.154c0 0-19.538 25.872-44.923 25.872-25.284 0-46.286-28.627-46.286-28.627l-83.682-104.262 0 454.987c0 14.544 11.816 26.391 26.391 26.391l659.357 0c14.573 0 26.387-11.848 26.387-26.391l0-432.592-0.031 0zM472.469 489.274c0-51.612-41.809-93.42-93.388-93.42s-93.419 41.842-93.419 93.42c0 51.543 41.841 93.382 93.419 93.382 51.58-0.032 93.388-41.84 93.388-93.382l0 0zM472.469 489.274z"  horiz-adv-x="1025" />

    
    <glyph glyph-name="checkbox-round-1" unicode="&#58993;" d="M512 832C264.576 832 64 631.424 64 384s200.576-448 448-448 448 200.576 448 448S759.424 832 512 832zM717.952 457.408l-256.448-256.256c-8-8.064-19.328-10.752-29.632-8.576-10.496-2.816-22.016-0.192-30.272 8.064L264.96 337.28C252.672 349.504 253.312 369.91999999999996 265.344 382.08000000000004c12.544 12.48 32.384 12.864 44.864 0.448l121.088-121.152 241.344 241.344c12.416 12.544 33.152 12.16 45.312 0C730.432 490.24 730.496 470.08 717.952 457.408z"  horiz-adv-x="1024" />

    
    <glyph glyph-name="checkbox-round-0" unicode="&#58994;" d="M512 832C264.576 832 64 631.424 64 384s200.576-448 448-448 448 200.576 448 448S759.424 832 512 832zM512 0c-212.096 0-384 171.968-384 384 0 212.096 171.904 384 384 384 212.032 0 384-171.904 384-384C896 171.96799999999996 724.032 0 512 0z"  horiz-adv-x="1024" />

    
    <glyph glyph-name="circle-f" unicode="&#58886;" d="M539.008 604.608l-465.024-2.688s25.6 67.584 95.936 137.984C240.32 810.24 305.216 838.528 305.216 838.528l233.792-233.92M385.024 563.52L58.048 232.76800000000003S28.352 298.688 28.352 398.144c0 99.52 25.984 165.376 25.984 165.376h330.688M305.216 425.6l2.688-465.088s-67.584 25.6-137.984 95.936c-70.336 70.4-98.56 135.296-98.56 135.296l233.856 233.792M346.304 271.552l330.752-326.976s-65.92-29.632-165.44-29.632c-99.456 0-165.312 25.92-165.312 25.92V271.48800000000006M484.224 191.67999999999995l465.088 2.752s-25.6-67.584-96-137.984c-70.336-70.4-135.232-98.624-135.232-98.624l-233.856 233.92M638.272 232.76800000000003l326.912 330.752s29.696-65.856 29.696-165.312c0-99.584-25.92-165.44-25.92-165.44H638.272M718.08 370.75199999999995L715.392 835.84s67.584-25.6 137.92-95.936c70.4-70.4 98.624-135.296 98.624-135.296L718.08 370.75199999999995M677.056 524.8L346.24 851.712S412.16 881.408 511.68 881.408c99.456 0 165.312-25.856 165.312-25.856V524.8"  horiz-adv-x="1024" />

    
    <glyph glyph-name="clock" unicode="&#58888;" d="M510.47732-64.18048599999997c-247.000534 0-447.952288 200.951755-447.952288 447.952289s200.951755 447.952288 447.952288 447.952288c69.320808 0 135.796826-15.415085 197.576891-45.822628 11.452843-5.638417 16.171308-19.49603 10.532891-30.955013-5.644557-11.452843-19.490913-16.154935-30.955013-10.53289-55.373145 27.251667-114.973568 41.069371-177.154769 41.069371-221.503836 0-401.712151-180.208315-401.712151-401.712152s180.208315-401.712151 401.712151-401.712151S912.189472 162.267966 912.189472 383.771803c0 76.517721-21.584598 150.924361-62.428842 215.18799-6.852058 10.775414-3.668553 25.061792 7.100722 31.913851 10.781554 6.846942 25.061792 3.668553 31.914874-7.111978 45.573965-71.685669 69.653383-154.672732 69.653383-239.989863 0-247.000534-200.945615-447.952288-447.952289-447.952289zM510.47732 360.65122199999996c-12.767791 0-23.12058 10.351766-23.12058 23.120581V717.805552c0 12.767791 10.351766 23.12058 23.12058 23.12058 12.767791 0 23.12058-10.351766 23.120581-23.12058v-334.033749c0-12.767791-10.351766-23.12058-23.120581-23.120581zM728.222553 360.65122199999996H510.47732c-12.767791 0-23.12058 10.351766-23.12058 23.120581s10.351766 23.12058 23.12058 23.12058h217.74421c12.767791 0 23.12058-10.351766 23.12058-23.12058s-10.351766-23.12058-23.119557-23.120581z"  horiz-adv-x="1024" />

    
    <glyph glyph-name="home" unicode="&#58906;" d="M931.148 444.75L591.505 798.346c-21.106 21.953-49.313 34.034-79.551 34.034-30.235 0-58.448-12.081-79.554-34.034L92.76 444.75c-35.049-36.498-30.536-68.044-24.742-81.222 4.13-9.35 18.07-35.05 58.231-35.05h49.78v-272.016c0-61.756 44.342-119.906 107.357-119.906h144.587v287.87c0 30.866-4.675 48.062 26.848 48.062h114.268c31.52 0 26.845-17.196 26.845-48.061v-287.872h144.588c63.013 0 107.358 58.15 107.358 119.906V328.477h49.782c40.16 0 54.1 25.7 58.229 35.05 5.793 13.18 10.306 44.726-24.743 81.224z m-33.486-60.28h-105.77v-328.007c0-30.865-19.877-63.917-51.37-63.917h-88.6V224.428c0 61.761-19.79 104.05-82.832 104.05H454.821c-63.045 0-82.836-42.289-82.836-104.05v-231.883h-88.599c-31.495 0-51.37 33.052-51.37 63.917V384.471H126.25c-0.984 0-1.888 3.852-2.708 3.907 1.94 3.388 5.276 11.975 10.825 17.743l339.671 353.35c10.142 10.578 24.467 17.057 38.353 16.924 13.888 0.133 27.342-6.346 37.483-16.923L889.54 406.12c5.549-5.768 8.885-14.355 10.825-17.743-0.818-0.055-1.72-3.907-2.704-3.907z"  horiz-adv-x="1024" />

    
    <glyph glyph-name="list_add_check" unicode="&#59738;" d="M597.333333 469.333333H85.333333v-85.333333h512v85.333333z m0 170.666667H85.333333v-85.333333h512v85.333333zM85.333333 213.33333300000004h341.333334v85.333334H85.333333v-85.333334z m832 192l64-64-298.453333-298.666666L490.666667 234.66666699999996l64 64 128.213333-128L917.333333 405.333333z"  horiz-adv-x="1024" />

    
    <glyph glyph-name="list_add" unicode="&#59739;" d="M597.333333 469.333333H85.333333v-85.333333h512v85.333333z m0 170.666667H85.333333v-85.333333h512v85.333333z m170.666667-341.333333v170.666666h-85.333333v-170.666666h-170.666667v-85.333334h170.666667v-170.666666h85.333333v170.666666h170.666667v85.333334h-170.666667zM85.333333 213.33333300000004h341.333334v85.333334H85.333333v-85.333334z"  horiz-adv-x="1024" />

    
    <glyph glyph-name="person-f" unicode="&#58907;" d="M896.84-47.12300000000005c15.464 0 28 12.536 28 28 0 1.824-0.18 3.606-0.513 5.333-16.941 165.472-131.218 302.112-284.637 351.74 75.826 44.466 126.75 126.813 126.75 221.065 0 141.444-114.663 256.107-256.107 256.107S254.227 700.46 254.227 559.0160000000001c0-94.743 51.45-177.463 127.931-221.763C229.822 287.047 116.535 150.90800000000002 99.673-13.789999999999964a28.132 28.132 0 0 1-0.513-5.333c0-15.464 12.536-28 28-28"  horiz-adv-x="1024" />

    
    <glyph glyph-name="fav-f" unicode="&#59501;" d="M284.458667-45.397333c-36.437333-15.637333-68.48 7.68-64.896 47.168l22.613333 248.917333-164.394667 188.053333c-26.069333 29.824-13.653333 67.562667 24.789334 76.309334l243.370666 55.381333 127.786667 214.677333c20.288 34.090667 59.946667 34.069333 80.213333 0l127.786667-214.677333 243.370667-55.381333c38.656-8.789333 50.858667-46.485333 24.789333-76.309334l-164.394667-188.053333 22.741334-249.002667c3.605333-39.509333-28.458667-62.805333-64.896-47.146666l-229.504 98.517333-229.376-98.453333z"  horiz-adv-x="1024" />

    
    <glyph glyph-name="fav" unicode="&#59502;" d="M949.888 438.741333c26.069333 29.824 13.866667 67.52-24.789333 76.309334L681.728 570.4533329999999l-127.786667 214.677334c-20.266667 34.069333-59.925333 34.090667-80.213333 0l-127.786667-214.677334-243.370666-55.381333c-38.442667-8.746667-50.858667-46.506667-24.789334-76.309333l164.394667-188.053334-22.613333-248.917333c-3.584-39.466667 28.458667-62.805333 64.896-47.146667l237.781333 102.037334a21.333333 21.333333 0 0 1-16.810667 39.210666L267.626667-6.186667000000057c-6.698667-2.88-6.229333-3.221333-5.568 4.096l24.277333 267.093334-176.426667 201.813333c-4.757333 5.461333-4.906667 5.034667 2.133334 6.634667l261.205333 59.434666 137.152 230.4c3.733333 6.293333 3.136 6.293333 6.869333 0l137.173334-230.4 261.205333-59.434666c7.125333-1.621333 6.954667-1.088 2.133333-6.613334l-176.426666-201.813333 24.256-267.093333a21.333333 21.333333 0 1 1 42.496 3.84l-22.613334 248.917333 164.394667 188.053333z"  horiz-adv-x="1024" />

    
    <glyph glyph-name="search" unicode="&#59503;" d="M448 128c176.725333 0 320 143.274667 320 320 0 176.725333-143.274667 320-320 320-176.725333 0-320-143.274667-320-320 0-176.725333 143.274667-320 320-320z m0-42.666667c-200.298667 0-362.666667 162.368-362.666667 362.666667S247.701333 810.666667 448 810.666667s362.666667-162.368 362.666667-362.666667-162.368-362.666667-362.666667-362.666667z m304.917333 27.584a21.333333 21.333333 0 0 0 30.165334 30.165334l150.848-150.848a21.333333 21.333333 0 0 0-30.165334-30.165334l-150.848 150.826667z"  horiz-adv-x="1024" />

    
    <glyph glyph-name="share" unicode="&#59504;" d="M763.84 0c-47.128 0-85.333 38.205-85.333 85.333s38.205 85.333 85.333 85.333c47.128 0 85.333-38.205 85.333-85.333 0-47.128-38.205-85.333-85.333-85.333M329.92 337.15200000000004c-14.895-26.231-42.641-43.638-74.453-43.638-47.128 0-85.333 38.205-85.333 85.333 0 16.097 4.457 31.152 12.204 44 14.935 24.769 42.098 41.333 73.13 41.333 47.128 0 85.333-38.205 85.333-85.333 0-15.317-4.035-29.691-11.101-42.117M763.84 768c47.128 0 85.333-38.205 85.333-85.333s-38.205-85.333-85.333-85.333c-47.128 0-85.333 38.205-85.333 85.333 0 47.128 38.205 85.333 85.333 85.333M763.84 213.33299999999997c-0.021 0-0.047 0-0.072 0-39.16 0-74.203-17.626-97.628-45.378l-289.885 167.063c4.932 13.101 7.787 28.245 7.787 44.055 0 0.105 0 0.209 0 0.314 0 0.072 0 0.177 0 0.281 0 15.81-2.855 30.953-8.077 44.942l295.544 169.566c23.265-24.363 56.001-39.509 92.275-39.509 0.02 0 0.039 0 0.059 0 70.689 0 127.997 57.308 127.997 128 0 70.692-57.308 128-128 128-70.692 0-128-57.308-128-128 0-18.965 4.224-36.907 11.627-53.099l-292.288-168.747c-23.653 28.833-59.285 47.084-99.18 47.084-70.692 0-128-57.308-128-128 0-0.188 0-0.376 0.001-0.564-0.001-0.123-0.001-0.304-0.001-0.484 0-70.692 57.308-128 128-128 39.895 0 75.526 18.251 99.001 46.86l289.373-166.752c-5.397-13.568-8.529-29.29-8.533-45.743 0-70.582 57.308-127.889 128-127.889 70.692 0 128 57.308 128 128 0 70.692-57.308 128-128 128z"  horiz-adv-x="1024" />

    
    <glyph glyph-name="message" unicode="&#59505;" d="M938.666667 441.898667c0-201.621333-186.432-364.202667-416.938667-368.661334-9.130667-10.346667-11.733333-13.226667-16.213333-17.898666-1.493333-1.578667-1.493333-1.578667-3.029334-3.136-7.552-7.68-15.253333-14.741333-35.456-32.597334-54.272-41.322667-130.837333-62.165333-186.602666-62.272a21.333333 21.333333 0 0 0-14.378667 5.546667 22.485333 22.485333 0 0 0-6.741333 22.592c0.810667 3.413333 2.197333 6.293333 4.053333 9.28 2.026667 3.242667 4.629333 6.570667 8.874667 11.605333 1.109333 1.322667 8.682667 10.197333 11.093333 13.077334 4.672 5.589333 8.64 10.56 12.416 15.594666 23.253333 31.146667 33.216 58.474667 26.666667 83.52a21.333333 21.333333 0 1 0 41.28 10.794667c10.602667-40.597333-3.52-79.36-33.770667-119.850667-1.173333-1.578667-2.368-3.136-3.584-4.693333 39.104 7.509333 82.026667 23.744 113.6 47.722667 18.282667 16.213333 25.472 22.826667 32.128 29.610666l2.602667 2.666667c4.757333 4.992 7.36 7.893333 21.333333 23.765333a21.333333 21.333333 0 0 0 16 7.253334c212.736 0 384 146.773333 384 326.08C896 621.226667 724.736 768 512 768S128 621.226667 128 441.898667c0-86.933333 40.32-168.661333 111.274667-229.461334a21.333333 21.333333 0 1 0-27.776-32.405333C131.413333 248.70399999999995 85.333333 342.058667 85.333333 441.898667 85.333333 646.357333 277.034667 810.666667 512 810.666667s426.666667-164.309333 426.666667-368.768zM341.333333 512c0 11.776 9.493333 21.333333 21.333334 21.333333h298.666666c11.776 0 21.333333-9.472 21.333334-21.333333 0-11.776-9.493333-21.333333-21.333334-21.333333H362.666667c-11.776 0-21.333333 9.472-21.333334 21.333333z m0-128c0 11.776 9.728 21.333333 21.376 21.333333h213.248a21.312 21.312 0 1 0 0-42.666666h-213.248A21.312 21.312 0 0 0 341.333333 384z"  horiz-adv-x="1024" />

    
    <glyph glyph-name="like-f" unicode="&#59506;" d="M669.781333 765.248c71.637333 11.093333 138.901333-11.477333 193.344-64.533333 55.317333-53.930667 81.834667-124.992 74.282667-199.530667-7.466667-73.642667-46.549333-146.368-112.32-210.474667-18.346667-17.898667-67.669333-66.218667-138.453333-135.637333-31.829333-31.232-65.706667-64.448-99.84-97.984L553.6 24.53333299999997l-13.184-12.949333a40.554667 40.554667 0 0 0-56.832 0l-114.602667 112.64-24.213333 23.722667a677626.346667 677626.346667 0 0 1-145.856 142.762666C133.141333 354.81600000000003 94.08 427.52 86.613333 501.184c-7.552 74.538667 18.944 145.6 74.282667 199.530667 54.442667 53.056 121.706667 75.605333 193.344 64.533333 53.162667-8.213333 107.093333-34.688 157.781333-76.949333 50.709333 42.24 104.618667 68.736 157.781334 76.949333z"  horiz-adv-x="1024" />

    
    <glyph glyph-name="like" unicode="&#59507;" d="M523.733333 54.976l33.173334 32.576 99.690666 97.813333c70.976 69.632 120.32 117.973333 138.709334 135.893334 59.008 57.514667 93.248 121.28 99.626666 184.234666 6.250667 61.44-15.488 119.744-61.589333 164.672-44.992 43.84-98.88 61.909333-157.034667 52.906667-49.365333-7.616-101.034667-34.624-150.016-78.848a21.333333 21.333333 0 0 0-28.586666 0c-48.981333 44.224-100.650667 71.232-150.016 78.869333-58.154667 8.96-112.042667-9.088-157.034667-52.928-46.101333-44.928-67.84-103.210667-61.610667-164.693333 6.4-62.933333 40.64-126.72 99.648-184.213333a100207.573333 100207.573333 0 0 0 145.92-142.826667l24.256-23.765333L512 43.477333000000044l11.733333 11.498667z m-11.733333-11.52l-1.493333-1.429333A2.133333 2.133333 0 0 0 512 42.66666699999996c0.512 0 1.045333-0.213333 1.493333-0.64l-1.493333 1.450666z m157.781333 721.792c71.637333 11.093333 138.901333-11.477333 193.344-64.533333 55.317333-53.930667 81.834667-124.992 74.282667-199.530667-7.466667-73.642667-46.549333-146.368-112.32-210.474667-18.346667-17.898667-67.669333-66.218667-138.453333-135.637333-31.829333-31.232-65.706667-64.448-99.84-97.984L553.6 24.53333299999997l-13.184-12.949333a40.554667 40.554667 0 0 0-56.832 0l-114.602667 112.64-24.213333 23.722667a677626.346667 677626.346667 0 0 1-145.856 142.762666C133.141333 354.81600000000003 94.08 427.52 86.613333 501.184c-7.552 74.538667 18.944 145.6 74.282667 199.530667 54.442667 53.056 121.706667 75.605333 193.344 64.533333 53.162667-8.213333 107.093333-34.688 157.781333-76.949333 50.709333 42.24 104.618667 68.736 157.781334 76.949333z"  horiz-adv-x="1024" />

    
    <glyph glyph-name="good-f" unicode="&#59508;" d="M710.549333 511.189333a12409.045333 12409.045333 0 0 1 47.466667 0.32l8.746667 0.085334c83.989333 0.618667 141.44-67.584 126.72-150.229334L847.296 101.97333300000003c-10.026667-56.448-63.914667-101.546667-121.130667-101.589333L298.624 0a42.730667 42.730667 0 0 0-42.666667 42.410667l-0.810666 383.978666a42.666667 42.666667 0 0 0 42.026666 42.666667l3.157334 0.064c5.226667 0.042667 11.797333 0.042667 19.626666 0 91.946667-0.768 170.88 86.698667 170.709334 170.944-0.149333 86.741333 39.786667 126.762667 106.453333 127.573333 62.250667 0.746667 106.602667-59.605333 107.349333-149.12 0.213333-26.602667-6.293333-73.237333-14.506666-107.434666 6.186667 0 13.077333 0.042667 20.586666 0.085333z m-497.706666-63.232L213.333333 21.375999999999976A21.312 21.312 0 0 0 191.786667 0H149.525333A21.333333 21.333333 0 0 0 128 21.375999999999976l0.042667 426.581333A21.269333 21.269333 0 0 0 149.44 469.333333h41.984c11.669333 0 21.418667-9.578667 21.418667-21.376z"  horiz-adv-x="1024" />

    
    <glyph glyph-name="good" unicode="&#59509;" d="M757.76 43.09333300000003c36.906667 0.021333 72.832 30.208 79.296 66.56l51.093333 287.04c10.069333 56.469333-27.093333 100.522667-84.373333 100.096l-10.261333-0.085333a19972.266667 19972.266667 0 0 0-52.842667-0.362667 3552.853333 3552.853333 0 0 0-56.746667 0l-30.997333 0.426667 11.498667 28.8c10.24 25.642667 21.76 95.744 21.504 128.021333-0.618667 73.045333-31.36 114.858667-69.290667 114.410667-46.613333-0.554667-69.461333-23.466667-69.333333-91.136 0.213333-112.661333-102.144-226.112-225.130667-225.109333a1214.08 1214.08 0 0 1-20.629333 0l-3.52-0.042667c-0.192 0 0.64-409.109333 0.64-409.109333 0 0.085333 459.093333 0.490667 459.093333 0.490666z m-17.301333 495.914667a15332.288 15332.288 0 0 1 52.693333 0.362667l10.282667 0.085333c84.010667 0.618667 141.44-67.52 126.72-150.250667L879.061333 102.18666700000006c-10.090667-56.661333-63.68-101.696-121.258666-101.76l-458.922667-0.384A42.666667 42.666667 0 0 0 256 42.45333300000004l-0.853333 409.173334a42.624 42.624 0 0 0 42.346666 42.730666l3.669334 0.042667c5.909333 0.064 13.12 0.064 21.333333 0 98.176-0.789333 182.293333 92.437333 182.144 182.378667C504.469333 767.978667 546.24 809.8133330000001 616.106667 810.666667c65.173333 0.768 111.68-62.506667 112.448-156.714667 0.256-28.48-6.848-78.826667-15.701334-115.050667 8.021333 0 17.28 0.042667 27.584 0.106667zM170.666667 448v-405.333333h23.466666a21.333333 21.333333 0 0 0 0-42.666667H154.837333A26.709333 26.709333 0 0 0 128 26.66666699999996v437.333333c0 14.784 12.074667 26.666667 26.773333 26.666667h38.912a21.333333 21.333333 0 0 0 0-42.666667H170.666667z"  horiz-adv-x="1024" />

    
    <glyph glyph-name="discount" unicode="&#59521;" d="M128 446.208c0-12.373333 9.002667-34.133333 17.706667-42.837333L574.037333-24.960000000000036c-0.042667 0.021333 346.837333 346.794667 346.837334 346.794667L492.629333 750.293333c-8.618667 8.64-30.528 17.706667-42.837333 17.706667H128.149333L128 446.208zM85.333333 767.8506669999999C85.333333 791.488 104.426667 810.666667 128.149333 810.666667h321.642667c23.637333 0 56.405333-13.589333 73.024-30.208l428.309333-428.309334c16.682667-16.682667 16.64-43.754667-0.064-60.48L604.330667-55.06133299999999a42.816 42.816 0 0 0-60.48-0.064L115.541333 373.18399999999997C98.858667 389.866667 85.333333 422.485333 85.333333 446.208V767.8506669999999zM320 469.333333a106.666667 106.666667 0 1 0 0 213.333334 106.666667 106.666667 0 0 0 0-213.333334z m0 42.666667a64 64 0 1 1 0 128 64 64 0 0 1 0-128z"  horiz-adv-x="1024" />

    
    <glyph glyph-name="hint" unicode="&#59522;" d="M661.333333 234.602667c-11.157333-2.645333-11.157333-2.645333-12.010666-3.754667l-0.768-0.597333 0.576 0.533333a21.226667 21.226667 0 0 0 12.202666 3.84zM384 170.66666699999996h256v42.602666c0 7.253333 3.626667 13.653333 9.130667 17.493334 2.816 2.688 5.418667 5.269333 8.768 8.661333 5.546667 5.632 11.946667 12.202667 23.765333 24.448 18.965333 19.626667 23.893333 24.746667 29.568 30.4a282.944 282.944 0 0 1 83.157333 200.768c0 37.290667-7.274667 74.24-21.546666 108.693333a21.333333 21.333333 0 1 0 39.445333 16.32 327.04 327.04 0 0 0 24.768-125.013333c0-86.037333-33.578667-168.874667-95.658667-230.954667-5.397333-5.397333-10.346667-10.496-28.906666-29.717333A3223.168 3223.168 0 0 0 682.666667 203.86133299999995l-0.021334-79.466666c3.2-65.493333-16.448-103.061333-85.034666-103.061334h-174.293334c-66.688 0-89.664 42.88-81.984 103.36v82.133334c-14.208 10.432-33.834667 29.290667-61.824 57.258666-127.552 127.573333-127.552 334.357333 0 461.909334a325.589333 325.589333 0 0 0 230.954667 95.658666c42.858667 0 85.354667-8.384 125.013333-24.789333a21.333333 21.333333 0 0 0-16.32-39.424 284.373333 284.373333 0 0 1-108.693333 21.546667c-74.837333 0-146.794667-29.184-200.789333-83.178667-110.890667-110.869333-110.890667-290.666667 0-401.536 13.184-13.184 28.608-27.989333 40.938666-39.210667 6.656-6.08 12.224-10.944 16.298667-14.229333 1.92-1.536 3.370667-2.645333 4.245333-3.2-2.069333 1.344-3.285333 1.941333-8.490666 1.941333a21.333333 21.333333 0 0 0 21.333333-21.333333V170.66666699999996z m0-42.666667v-4.693333l-0.192-2.837334c-5.248-38.997333 3.904-56.469333 39.509333-56.469333h174.293334c37.333333 0 44.586667 13.866667 42.389333 59.349333V128H384z m0-128h256v-42.666667H384v42.666667z"  horiz-adv-x="1024" />

    
    <glyph glyph-name="coupon" unicode="&#59524;" d="M616.853333 805.482667a42.666667 42.666667 0 0 1-60.309333 0.042666L90.453333 339.456a42.752 42.752 0 0 1 0.042667-60.309333l58.858667-58.837334a149.333333 149.333333 0 0 0 198.933333-198.933333l58.837333-58.858667a42.666667 42.666667 0 0 1 60.309334-0.042666L933.546667 428.544a42.752 42.752 0 0 1-0.042667 60.309333l-45.013333 45.013334a149.333333 149.333333 0 0 0-205.290667 205.290666l-66.346667 66.325334zM963.626667 519.018667a85.418667 85.418667 0 0 0 0.042666-120.661334L497.642667-67.69066699999996a85.333333 85.333333 0 0 0-120.661334 0.042667l-83.072 83.072a106.666667 106.666667 0 0 1-150.464 150.464l-83.093333 83.093333a85.418667 85.418667 0 0 0-0.042667 120.661334L526.357333 835.690667a85.333333 85.333333 0 0 0 120.661334-0.042667l93.738666-93.738667a106.666667 106.666667 0 1 1 150.464-150.464l72.426667-72.426666z m-435.050667 29.397333l-181.013333-181.013333a21.333333 21.333333 0 0 1 30.165333-30.165334l181.013333 181.013334a21.333333 21.333333 0 0 1-30.165333 30.165333z m117.653333-128l-170.666666-170.666667a21.333333 21.333333 0 0 1 30.165333-30.165333l170.666667 170.666667a21.333333 21.333333 0 0 1-30.165334 30.165333z"  horiz-adv-x="1024" />

    
    <glyph glyph-name="vip-card" unicode="&#59526;" d="M128 42.66666699999996c0-0.064 768.064 0 768.064 0L896 725.333333c0 0.064-768.064 0-768.064 0L128 42.66666699999996zM127.936 768h768.128C919.594667 768 938.666667 749.013333 938.666667 725.333333v-682.666666c0-23.573333-19.029333-42.666667-42.602667-42.666667H127.936A42.56 42.56 0 0 0 85.333333 42.66666699999996V725.333333c0 23.573333 19.029333 42.666667 42.602667 42.666667zM85.333333 512h853.333334v-42.666667H85.333333v42.666667z m256-277.333333v-42.666667H170.666667v42.666667h170.666666z m256-91.946667l41.621334 128a21.333333 21.333333 0 0 1-40.576 13.226667l-21.632-67.690667-23.232 67.968a21.333333 21.333333 0 0 1-40.362667-13.781333l43.733333-128c6.613333-19.413333 34.133333-19.2 40.469334 0.298666z m85.333334-14.72a21.333333 21.333333 0 0 1 21.333333 21.333333v128a21.333333 21.333333 0 0 1-42.666667 0v-128a21.333333 21.333333 0 0 1 21.333334-21.333333z m85.333333 21.333333a21.333333 21.333333 0 0 0-42.666667 0v128a21.333333 21.333333 0 0 0 36.416 15.104A64 64 0 1 0 768 174.29333299999996V149.33333300000004z m21.333333 106.666667a21.333333 21.333333 0 1 1 0-42.666667 21.333333 21.333333 0 0 1 0 42.666667z"  horiz-adv-x="1024" />

    
    <glyph glyph-name="email" unicode="&#59528;" d="M127.936 768h768.128C919.594667 768 938.666667 749.013333 938.666667 725.333333v-682.666666c0-23.573333-19.029333-42.666667-42.602667-42.666667H127.936A42.56 42.56 0 0 0 85.333333 42.66666699999996V725.333333c0 23.573333 19.029333 42.666667 42.602667 42.666667zM128 42.66666699999996h768.064L896 725.333333H127.936L128 42.66666699999996z m53.973333 530.090666a21.333333 21.333333 0 1 1-22.613333-36.181333l341.333333-213.333333 11.306667-7.061334 11.306667 7.061334 341.333333 213.333333a21.333333 21.333333 0 1 1-22.613333 36.181333l-330.218667-206.378666L181.973333 572.757333z"  horiz-adv-x="1024" />

    
    <glyph glyph-name="filter" unicode="&#59529;" d="M426.837333 380.97066700000005c0 28.970667-15.061333 67.2-34.837333 88.490666L179.690667 697.770667C160.490667 718.933333 163.306667 725.333333 191.893333 725.333333h640.213334c28.522667 0 31.36-6.4 12.096-27.712l-211.498667-225.493333c-19.754667-21.056-34.816-59.221333-34.816-88.106667v-298.794666a21.333333 21.333333 0 1 1 42.666667 0V384c0 18.048 10.944 45.76 23.253333 58.901333l211.776 225.792C919.872 717.674667 897.706667 768 832.106667 768H191.893333c-65.728 0-87.744-50.346667-43.648-99.072l212.501334-228.522667c12.458667-13.397333 23.424-41.258667 23.424-59.434666v-359.381334a21.333333 21.333333 0 1 1 42.666666 0V380.97066700000005z"  horiz-adv-x="1024" />

    
    <glyph glyph-name="add" unicode="&#59530;" d="M533.333333 405.333333V768h-42.666666v-362.666667H128v-42.666666h362.666667v-362.666667h42.666666V362.66666699999996h362.666667v42.666666z"  horiz-adv-x="1024" />

    
    <glyph glyph-name="content" unicode="&#59531;" d="M128 63.95733299999995c0-17.002667 4.906667-20.309333 20.629333-14.016l15.36 6.144c75.733333 30.293333 193.578667 30.293333 269.354667 0l94.506667-37.802666h-31.701334l94.506667 37.802666c75.733333 30.293333 193.578667 30.293333 269.354667 0l15.36-6.144c15.658667-6.272 20.629333-2.901333 20.629333 14.016V640.0426669999999c0 29.738667-24.746667 66.304-52.309333 77.333333l-15.36 6.144c-55.424 22.165333-150.549333 22.186667-205.973334 0l-94.506666-37.802667-15.850667-6.336-15.850667 6.336-94.506666 37.802667c-55.402667 22.165333-150.528 22.186667-205.952 0l-15.36-6.144C152.810667 706.389333 128 669.696 128 640.0426669999999v-576.085334zM164.48 756.992l15.36 6.144c65.621333 26.24 172.117333 26.218667 237.653333 0L512 725.333333l94.506667 37.802667c65.621333 26.24 172.117333 26.218667 237.653333 0l15.36-6.144c43.733333-17.493333 79.146667-69.717333 79.146667-116.949333v-576.085334c0-47.104-35.477333-71.104-79.146667-53.632l-15.36 6.144c-65.621333 26.24-172.117333 26.218667-237.653333 0L512-21.33333300000004l-94.506667 37.802666c-65.621333 26.24-172.117333 26.218667-237.653333 0l-15.36-6.144c-43.733333-17.493333-79.146667 6.4-79.146667 53.632V640.0426669999999C85.333333 687.146667 120.810667 739.52 164.48 756.992zM490.666667 682.602667a21.333333 21.333333 0 1 0 42.666666 0v-511.872a21.333333 21.333333 0 1 0-42.666666 0V682.602667z"  horiz-adv-x="1024" />

    
    <glyph glyph-name="navigator" unicode="&#59532;" d="M915.797333 699.136c17.066667 39.168-10.602667 67.306667-50.133333 51.050667L138.026667 451.2c-40.96-16.832-37.952-56.277333 5.205333-66.773333l330.346667-80.341334-15.616 15.402667 77.76-301.205333a21.333333 21.333333 0 0 1 41.322666 10.666666l-77.781333 301.184a21.333333 21.333333 0 0 1-15.594667 15.402667L153.28 425.877333a24.298667 24.298667 0 0 0-6.186667 2.133334c1.941333-1.322667 4.138667-4.416 4.522667-9.322667 0.362667-4.906667-1.344-8.32-3.072-9.92 0.576 0.533333 2.517333 1.685333 5.674667 2.986667L881.92 710.698667a19.072 19.072 0 0 0 5.76 1.664 9.557333 9.557333 0 0 0-6.165333 3.178666 9.6 9.6 0 0 0-3.072 6.229334c0-0.768-0.512-2.773333-1.749334-5.610667L646.506667 187.64800000000002a21.333333 21.333333 0 0 1 39.125333-17.024L915.797333 699.136z"  horiz-adv-x="1024" />

    
    <glyph glyph-name="attachment" unicode="&#59533;" d="M516.373333 520.021333l136.576 136.576a147.797333 147.797333 0 0 0 208.853334 0.021334 147.690667 147.690667 0 0 0-0.042667-208.832l-204.8-204.778667v-0.021333l-153.621333-153.6c-85.973333-85.973333-225.28-85.973333-311.253334-0.021334-85.994667 85.973333-85.973333 225.216 0.149334 311.36L431.146667 639.637333a21.333333 21.333333 0 0 1-30.165334 30.165334L162.069333 430.933333c-102.805333-102.826667-102.826667-269.056-0.149333-371.733333 102.613333-102.613333 268.970667-102.613333 371.584 0l153.6 153.642667h0.021333l0.021334 0.021333 204.778666 204.778667c74.325333 74.325333 74.346667 194.858667 0.021334 269.184-74.24 74.24-194.88 74.24-269.162667-0.042667l-136.576-136.554667-187.626667-187.626666a117.845333 117.845333 0 0 1-0.106666-166.826667 118.037333 118.037333 0 0 1 166.826666 0.106667l255.850667 255.829333a21.333333 21.333333 0 0 1-30.165333 30.165333L435.136 226.02666699999997a75.370667 75.370667 0 0 0-106.496-0.106667 75.178667 75.178667 0 0 0 0.128 106.496l187.605333 187.605333z"  horiz-adv-x="1024" />

    
    <glyph glyph-name="more" unicode="&#59534;" d="M170.666667 384a85.333333 85.333333 0 1 1 170.666666 0 85.333333 85.333333 0 1 1-170.666666 0ZM426.666667 384a85.333333 85.333333 0 1 1 170.666666 0 85.333333 85.333333 0 1 1-170.666666 0ZM682.666667 384a85.333333 85.333333 0 1 1 170.666666 0 85.333333 85.333333 0 1 1-170.666666 0Z"  horiz-adv-x="1024" />

    
    <glyph glyph-name="service" unicode="&#59536;" d="M448-21.375999999999976C448-21.33333300000004 576-21.33333300000004 576-21.33333300000004c0.085333 0 0 42.709333 0 42.709333C576 21.33333300000004 448 21.33333300000004 448 21.33333300000004c-0.085333 0 0-42.709333 0-42.709333z m371.349333 173.034667C809.6 150.12266699999998 799.573333 149.33333300000004 789.333333 149.33333300000004a21.333333 21.333333 0 0 0-21.333333 21.333334V512a21.333333 21.333333 0 0 0 21.333333 21.333333 191.146667 191.146667 0 0 0 92.373334-23.637333C828.202667 661.482667 681.045333 768 511.296 768 341.290667 768 193.749333 661.184 140.458667 508.672A191.125333 191.125333 0 0 0 234.666667 533.333333a21.333333 21.333333 0 0 0 21.333333-21.333333v-341.333333a21.333333 21.333333 0 0 0-21.333333-21.333334 192 192 0 0 0-148.906667 313.216 21.269333 21.269333 0 0 0 0.042667 8.682667C127.36 667.712 304.469333 810.666667 511.274667 810.666667c209.706667 0 388.544-146.944 427.008-347.093334l0.213333-1.344A191.210667 191.210667 0 0 0 981.333333 341.33333300000004c0-70.4-37.909333-131.968-94.421333-165.397333-57.642667-100.693333-154.752-174.762667-268.778667-204.074667A42.517333 42.517333 0 0 0 576-64h-128c-23.573333 0-42.666667 19.157333-42.666667 42.624v42.752c0 23.552 18.922667 42.624 42.666667 42.624h128c23.573333 0 42.666667-19.157333 42.666667-42.624v-5.141333a392.810667 392.810667 0 0 1 200.682666 135.424zM85.333333 341.33333300000004c0.298667-133.589333 128-148.949333 128-148.949333V489.856s-128.298667-14.933333-128-148.522667z m853.333334 0c0.298667 133.589333-128 148.522667-128 148.522667v-297.472s127.701333 15.36 128 148.949333z"  horiz-adv-x="1024" />

    
    <glyph glyph-name="list" unicode="&#59537;" d="M149.461333 320h213.077334c11.861333 0 21.461333-9.6 21.461333-21.461333v-213.077334C384 73.60000000000002 374.4 64 362.538667 64H149.461333C137.6 64 128 73.60000000000002 128 85.46133299999997v213.077334C128 310.4 137.6 320 149.461333 320zM85.333333 85.46133299999997A64.106667 64.106667 0 0 1 149.461333 21.33333300000004h213.077334A64.106667 64.106667 0 0 1 426.666667 85.46133299999997v213.077334A64.106667 64.106667 0 0 1 362.538667 362.66666699999996H149.461333A64.106667 64.106667 0 0 1 85.333333 298.53866700000003v-213.077334z m0 384A64.106667 64.106667 0 0 1 149.461333 405.333333h213.077334A64.106667 64.106667 0 0 1 426.666667 469.461333v213.077334A64.106667 64.106667 0 0 1 362.538667 746.666667H149.461333A64.106667 64.106667 0 0 1 85.333333 682.538667v-213.077334zM149.461333 704h213.077334C374.4 704 384 694.4 384 682.538667v-213.077334C384 457.6 374.4 448 362.538667 448H149.461333C137.6 448 128 457.6 128 469.461333v213.077334C128 694.4 137.6 704 149.461333 704z m768.042667-64a21.333333 21.333333 0 0 1 0 42.666667h-426.666667a21.333333 21.333333 0 1 1 0-42.666667h426.666667z m0-384a21.333333 21.333333 0 0 1 0 42.666667h-426.666667a21.333333 21.333333 0 1 1 0-42.666667h426.666667z m0 213.333333a21.333333 21.333333 0 0 1 0 42.666667h-426.666667a21.333333 21.333333 0 1 1 0-42.666667h426.666667z m0-384a21.333333 21.333333 0 0 1 0 42.666667h-426.666667a21.333333 21.333333 0 1 1 0-42.666667h426.666667z"  horiz-adv-x="1024" />

    
    <glyph glyph-name="catalog" unicode="&#59538;" d="M106.666667 704a21.333333 21.333333 0 1 1 0-42.666667h85.333333a21.333333 21.333333 0 0 1 0 42.666667H106.666667z m0-298.666667a21.333333 21.333333 0 0 1 0-42.666666h85.333333a21.333333 21.333333 0 0 1 0 42.666666H106.666667z m0-298.666666a21.333333 21.333333 0 0 1 0-42.666667h85.333333a21.333333 21.333333 0 0 1 0 42.666667H106.666667zM320 704a21.333333 21.333333 0 0 1 0-42.666667h597.333333a21.333333 21.333333 0 0 1 0 42.666667H320z m0-298.666667a21.333333 21.333333 0 0 1 0-42.666666h597.333333a21.333333 21.333333 0 0 1 0 42.666666H320z m0-298.666666a21.333333 21.333333 0 0 1 0-42.666667h597.333333a21.333333 21.333333 0 0 1 0 42.666667H320z"  horiz-adv-x="1024" />

    
    <glyph glyph-name="comment" unicode="&#59539;" d="M853.333333 128c35.413333 0 64 20.650667 64 55.978667V725.418667A63.978667 63.978667 0 0 1 853.333333 789.333333H170.666667C135.253333 789.333333 106.666667 760.746667 106.666667 725.418667v-541.44C106.666667 148.71466699999996 135.338667 128 170.666667 128h201.173333l110.016-117.44a42.752 42.752 0 0 1 60.586667-0.042667L651.904 128H853.333333z m-219.029333 42.666667h-6.250667l-115.797333-129.962667c-0.106667-0.106667-116.010667 129.962667-116.010667 129.962667H170.666667c-11.776 0-21.333333 1.621333-21.333334 13.312V725.418667A21.205333 21.205333 0 0 0 170.666667 746.666667h682.666666c11.776 0 21.333333-9.536 21.333334-21.248v-541.44c0-11.754667-9.472-13.312-21.333334-13.312H634.304zM341.333333 405.333333a42.666667 42.666667 0 1 1 0 85.333334 42.666667 42.666667 0 0 1 0-85.333334z m170.666667 0a42.666667 42.666667 0 1 1 0 85.333334 42.666667 42.666667 0 0 1 0-85.333334z m170.666667 0a42.666667 42.666667 0 1 1 0 85.333334 42.666667 42.666667 0 0 1 0-85.333334z"  horiz-adv-x="1024" />

    
    <glyph glyph-name="scan" unicode="&#59540;" d="M149.333333 725.141333A21.546667 21.546667 0 0 0 170.858667 746.666667H384V789.333333H170.858667A64.213333 64.213333 0 0 1 106.666667 725.141333V512h42.666666V725.141333zM170.858667 21.33333300000004A21.546667 21.546667 0 0 0 149.333333 42.85866699999997V256H106.666667v-213.141333A64.213333 64.213333 0 0 1 170.858667-21.33333300000004H384v42.666666H170.858667zM853.12 746.666667A21.546667 21.546667 0 0 0 874.666667 725.141333V512h42.666666V725.141333A64.213333 64.213333 0 0 1 853.141333 789.333333H640v-42.666666h213.141333zM874.666667 42.85866699999997A21.546667 21.546667 0 0 0 853.141333 21.33333300000004H640v-42.666666h213.141333A64.213333 64.213333 0 0 1 917.333333 42.85866699999997V256h-42.666666v-213.141333zM106.666667 405.333333h810.666666v-42.666666H106.666667v42.666666z"  horiz-adv-x="1024" />

    
    <glyph glyph-name="all" unicode="&#59542;" d="M298.666667 746.666667c82.410667 0 149.333333-66.986667 149.333333-149.333334v-149.333333h-149.333333c-82.410667 0-149.333333 66.986667-149.333334 149.333333 0 82.410667 66.986667 149.333333 149.333334 149.333334z m0-341.333334h192v192c0 105.92-86.016 192-192 192-105.92 0-192-86.016-192-192 0-105.92 86.016-192 192-192z m0-42.666666c-105.984 0-192-86.08-192-192 0-105.984 86.08-192 192-192 105.984 0 192 86.08 192 192v170.666666a21.333333 21.333333 0 0 1-21.333334 21.333334h-170.666666z m149.333333-192c0-82.346667-66.922667-149.333333-149.333333-149.333334-82.346667 0-149.333333 66.922667-149.333334 149.333334 0 82.346667 66.922667 149.333333 149.333334 149.333333h149.333333v-149.333333z m277.333333 149.333333c82.410667 0 149.333333-66.986667 149.333334-149.333333 0-82.410667-66.986667-149.333333-149.333334-149.333334-82.453333 0-149.333333 66.88-149.333333 149.269334v24.298666a21.333333 21.333333 0 0 1-42.666667 0v-24.298666C533.333333 64.66133300000001 619.306667-21.33333300000004 725.333333-21.33333300000004c105.92 0 192 86.016 192 192 0 105.92-86.016 192-192 192h-170.666666a21.333333 21.333333 0 0 1 0-42.666667h170.666666z m0 469.333333c-105.984 0-192-86.08-192-192v-170.666666a21.333333 21.333333 0 0 1 21.333334-21.333334h170.666666c105.984 0 192 86.08 192 192 0 105.984-86.08 192-192 192z m0-341.333333h-149.333333v149.333333c0 82.346667 66.922667 149.333333 149.333333 149.333334 82.346667 0 149.333333-66.922667 149.333334-149.333334 0-82.346667-66.922667-149.333333-149.333334-149.333333z"  horiz-adv-x="1024" />

    
    <glyph glyph-name="setting" unicode="&#59543;" d="M872.554667 589.696c-22.613333-8.128-45.696-9.941333-69.162667-4.373333a119.722667 119.722667 0 0 0-85.504 158.144c1.749333 4.842667 0.853333 6.954667-3.605333 8.96-17.92 8.106667-35.541333 16.917333-53.674667 24.533333-11.925333 4.992-24.533333 8.384-36.501333 12.373333-23.146667-47.658667-59.456-74.88-112.064-74.88-52.821333 0-89.258667 27.306667-111.978667 74.538667a411.733333 411.733333 0 0 1-95.530667-39.573333c17.216-49.493333 10.922667-94.634667-26.538666-131.925334-37.376-37.205333-82.496-43.712-131.776-26.282666A413.290667 413.290667 0 0 1 106.666667 495.701333c46.933333-22.656 74.197333-58.666667 74.517333-110.997333 0.32-53.162667-26.986667-89.770667-74.538667-112.768a410.154667 410.154667 0 0 1 39.637334-95.530667c47.808 16.789333 91.669333 11.370667 128.64-23.253333 39.957333-37.44 47.274667-83.626667 29.653333-134.933333a404.949333 404.949333 0 0 1 95.530667-39.466667c23.04 47.36 59.349333 74.474667 111.978666 74.453333 52.885333-0.064 89.216-27.541333 111.893334-74.538666a411.584 411.584 0 0 1 95.488 39.616c-17.386667 49.493333-10.816 94.4 26.24 131.626666 37.290667 37.418667 82.432 43.776 132.053333 26.538667a407.637333 407.637333 0 0 1 39.509333 95.509333c-47.786667 23.210667-74.986667 59.946667-74.517333 113.066667 0.448 52.053333 27.562667 87.957333 74.56 110.656a420.394667 420.394667 0 0 1-38.016 92.970667c-2.048 3.712-4.309333 1.92-6.762667 1.066666z m85.952-82.794667a42.666667 42.666667 0 0 0-22.613334-49.642666c-34.602667-16.725333-50.176-39.146667-50.453333-72.618667-0.298667-34.282667 15.253333-57.194667 50.496-74.304a42.666667 42.666667 0 0 0 22.549333-49.536 450.304 450.304 0 0 0-43.669333-105.472 42.666667 42.666667 0 0 0-51.050667-19.178667c-36.650667 12.736-63.850667 7.68-87.808-16.362666-23.914667-24.021333-28.949333-51.093333-16.213333-87.381334a42.666667 42.666667 0 0 0-19.072-51.178666 454.229333 454.229333 0 0 0-105.344-43.690667 42.666667 42.666667 0 0 0-49.770667 22.592c-16.725333 34.688-39.509333 50.368-73.493333 50.389333-33.92 0.021333-56.597333-15.509333-73.578667-50.432a42.666667 42.666667 0 0 0-49.322666-22.570666 447.338667 447.338667 0 0 0-105.6 43.562666 42.666667 42.666667 0 0 0-19.328 50.986667c13.034667 37.973333 7.381333 65.728-18.474667 89.941333-23.594667 22.101333-50.090667 26.517333-85.333333 14.144a42.666667 42.666667 0 0 0-51.157334 19.050667 452.821333 452.821333 0 0 0-43.733333 105.450667 42.666667 42.666667 0 0 0 22.549333 49.706666c35.072 16.938667 50.666667 39.808 50.453334 74.069334-0.213333 33.642667-15.786667 56.149333-50.389334 72.853333A42.666667 42.666667 0 0 0 65.493333 506.88a455.808 455.808 0 0 0 43.541334 105.344 42.666667 42.666667 0 0 0 51.392 19.242667c36.096-12.778667 63.317333-7.722667 87.466666 16.298666 24 23.893333 29.034667 51.072 16.32 87.68a42.666667 42.666667 0 0 0 19.178667 51.050667 454.4 454.4 0 0 0 105.386667 43.669333 42.666667 42.666667 0 0 0 49.706666-22.656c16.725333-34.730667 39.509333-50.389333 73.536-50.368 33.898667 0 56.576 15.616 73.664 50.837334a42.666667 42.666667 0 0 0 51.882667 21.845333c2.517333-0.832 4.992-1.621333 9.28-2.965333l7.530667-2.346667c8.96-2.88 15.786667-5.290667 22.698666-8.192 10.154667-4.245333 18.090667-7.872 35.029334-15.829333 10.069333-4.736 14.4-6.741333 19.733333-9.152 25.024-11.306667 35.349333-36.821333 26.154667-62.336-16-44.352 9.344-91.221333 55.253333-102.144 14.805333-3.52 29.418667-2.538667 44.864 3.029333a33.28 33.28 0 0 0 4.48 1.621333c5.269333 1.621333 10.88 2.453333 17.322667 1.941334 16.853333-1.344 29.525333-11.093333 36.736-24.170667a462.890667 462.890667 0 0 0 41.813333-102.357333zM522.666667 576a202.666667 202.666667 0 1 1 166.4-86.954667 21.333333 21.333333 0 0 1-35.008-24.384 160 160 0 1 0-69.184 56.128 21.333333 21.333333 0 0 1 16.597333 39.317334A202.090667 202.090667 0 0 1 522.666667 576z"  horiz-adv-x="1024" />

    
    <glyph glyph-name="exit" unicode="&#59544;" d="M874.666667 40.25599999999997a19.093333 19.093333 0 0 0-19.136-18.922667H168.469333A19.2 19.2 0 0 0 149.333333 40.469333000000006V727.530667A19.2 19.2 0 0 0 168.469333 746.666667h687.061334c10.581333 0 19.136-8.533333 19.136-18.922667V576h42.666666V727.744A61.717333 61.717333 0 0 1 855.530667 789.333333H168.469333A61.866667 61.866667 0 0 1 106.666667 727.530667v-687.061334A61.866667 61.866667 0 0 1 168.469333-21.33333300000004h687.061334A61.76 61.76 0 0 1 917.333333 40.25599999999997V192h-42.666666v-151.744zM851.84 362.66666699999996l-131.797333-131.754667a21.141333 21.141333 0 0 1 0.213333-29.973333 21.141333 21.141333 0 0 1 29.973333-0.192l165.589334 165.589333a20.821333 20.821333 0 0 1 6.122666 14.976 21.44 21.44 0 0 1-6.314666 14.997333l-168.533334 168.533334a21.141333 21.141333 0 0 1-29.952 0.213333 21.141333 21.141333 0 0 1 0.213334-29.973333L847.296 405.333333H469.333333v-42.666666h382.506667z"  horiz-adv-x="1024" />

    
    <glyph glyph-name="question" unicode="&#59545;" d="M853.333333 128H651.946667l-109.504-117.482667a42.752 42.752 0 0 0-60.586667 0.042667L371.84 128H170.666667C135.36 128 106.666667 148.69333300000005 106.666667 183.97866699999997V725.418667A63.872 63.872 0 0 0 170.666667 789.333333h682.666666c35.328 0 64-28.629333 64-63.914666v-541.44C917.333333 148.650667 888.746667 128 853.333333 128z m-225.28 28.501333l15.082667 14.165334H853.333333c11.861333 0 21.333333 1.557333 21.333334 13.312V725.418667A21.312 21.312 0 0 1 853.333333 746.666667H170.666667c-11.861333 0-21.333333-9.472-21.333334-21.248v-541.44c0-11.690667 9.557333-13.312 21.333334-13.312h210.496l15.082666-14.165334s115.904-115.904 116.010667-115.797333l115.797333 115.797333zM490.666667 277.33333300000004A21.269333 21.269333 0 0 0 512 298.66666699999996c11.776 0 21.333333-9.450667 21.333333-21.312v-21.376A21.269333 21.269333 0 0 0 512 234.66666699999996c-11.776 0-21.333333 9.450667-21.333333 21.312v21.376z m66.944 115.754667a145.92 145.92 0 0 1-12.501334-5.418667 20.693333 20.693333 0 0 1-12.16-19.029333c-0.106667-3.648 0.042667-7.424-0.768-10.944-2.325333-10.304-12.16-17.344-22.144-16.277333a21.248 21.248 0 0 0-19.562666 20.8c-1.152 30.037333 11.349333 51.925333 38.613333 65.002666a121.813333 121.813333 0 0 0 11.264 4.864c36.970667 13.333333 60.096 49.92 56 88.64-4.117333 38.912-34.773333 70.570667-73.216 75.605334a85.354667 85.354667 0 0 1-96.576-82.154667c-0.085333-2.773333-0.213333-5.653333-0.96-8.32a21.12 21.12 0 0 0-22.954667-15.168 21.248 21.248 0 0 0-18.645333 21.696c0.384 31.36 10.197333 59.541333 31.146667 82.88 34.410667 38.357333 77.653333 52.906667 127.530666 40.277333 50.346667-12.757333 81.557333-46.4 93.717334-97.109333 2.069333-8.661333 2.453333-17.728 3.605333-26.624-1.130667-53.248-32.981333-99.477333-82.389333-118.72z"  horiz-adv-x="1024" />

    
    <glyph glyph-name="ordering" unicode="&#59546;" d="M520.682667 128.14933299999996l27.733333-27.733333a21.333333 21.333333 0 0 0-30.165333-30.165333L439.168 149.33333300000004l79.082667 79.082667a21.333333 21.333333 0 0 0 30.165333-30.165333l-27.370667-27.370667A192 192 0 1 1 320 362.66666699999996a21.333333 21.333333 0 0 0-42.666667 0c0 129.6 105.066667 234.666667 234.666667 234.666666s234.666667-105.066667 234.666667-234.666666c0-126.698667-100.416-229.952-225.984-234.517334zM298.666667 768.0426669999999C298.666667 791.594667 317.824 810.666667 341.12 810.666667h341.76C706.304 810.666667 725.333333 791.509333 725.333333 768.0426669999999v-42.752A42.645333 42.645333 0 0 0 682.88 682.666667H341.12C317.696 682.666667 298.666667 701.8240000000001 298.666667 725.290667V768.0426669999999zM341.333333 725.333333h341.333334V768H341.333333v-42.666667z m-105.173333 42.666667v-42.666667H170.752C170.688 725.333333 170.666667 0.10666700000001583 170.666667 0.10666700000001583 170.666667 0 853.333333 0 853.333333 0c0.042667 0 0 725.226667 0 725.226667C853.333333 725.312 789.909333 725.333333 789.909333 725.333333V768h63.296C876.842667 768 896 748.928 896 725.226667v-725.12C896-23.50933299999997 877.013333-42.66666699999996 853.333333-42.66666699999996H170.666667a42.666667 42.666667 0 0 0-42.666667 42.773334V725.226667C128 748.842667 147.114667 768 170.752 768h65.408z"  horiz-adv-x="1024" />

    
    <glyph glyph-name="order-pay" unicode="&#59547;" d="M465.621333 426.666667l-97.813333 114.133333a21.333333 21.333333 0 1 0 32.384 27.733333L512 438.144l111.786667 130.432a21.333333 21.333333 0 1 0 32.426666-27.776L558.357333 426.666667h81.493334c11.84 0 21.461333-9.472 21.461333-21.333334 0-11.776-9.6-21.333333-21.482667-21.333333H533.333333v-85.333333h106.517334c11.861333 0 21.482667-9.472 21.482666-21.333334 0-11.776-9.6-21.333333-21.482666-21.333333H533.333333v-127.850667c0-11.861333-9.472-21.482667-21.333333-21.482666-11.776 0-21.333333 9.578667-21.333333 21.482666V256h-106.517334A21.354667 21.354667 0 0 0 362.666667 277.33333300000004c0 11.776 9.6 21.333333 21.482666 21.333334H490.666667v85.333333h-106.517334A21.354667 21.354667 0 0 0 362.666667 405.333333c0 11.776 9.6 21.333333 21.482666 21.333334h81.472zM298.666667 768.0426669999999C298.666667 791.594667 317.824 810.666667 341.12 810.666667h341.76C706.304 810.666667 725.333333 791.509333 725.333333 768.0426669999999v-42.752A42.645333 42.645333 0 0 0 682.88 682.666667H341.12C317.696 682.666667 298.666667 701.8240000000001 298.666667 725.290667V768.0426669999999zM341.333333 725.333333h341.333334V768H341.333333v-42.666667z m-105.173333 42.666667v-42.666667H170.752L170.666667 0.10666700000001583 853.333333 0V725.226667L789.909333 725.333333V768h63.296C876.842667 768 896 748.928 896 725.226667v-725.12C896-23.50933299999997 877.013333-42.66666699999996 853.333333-42.66666699999996H170.666667a42.666667 42.666667 0 0 0-42.666667 42.773334V725.226667C128 748.842667 147.114667 768 170.752 768h65.408z"  horiz-adv-x="1024" />

    
    <glyph glyph-name="order" unicode="&#59548;" d="M298.666667 554.666667h384v-42.666667H298.666667v42.666667z m0-128h298.666666v-42.666667H298.666667v42.666667z m0-128h298.666666v-42.666667H298.666667v42.666667z m0 469.376C298.666667 791.594667 317.824 810.666667 341.12 810.666667h341.76C706.304 810.666667 725.333333 791.509333 725.333333 768.0426669999999v-42.752A42.645333 42.645333 0 0 0 682.88 682.666667H341.12C317.696 682.666667 298.666667 701.8240000000001 298.666667 725.290667V768.0426669999999zM170.666667-42.66666699999996h682.666666c23.68 0 42.666667 19.157333 42.666667 42.773334V725.226667C896 748.906667 876.842667 768 853.205333 768h-63.296v-42.666667h63.296c0.128-0.106667 0.170667-725.333333 0.128-725.333333H170.666667V725.226667C170.752 725.290667 236.16 725.333333 236.16 725.333333V768H170.752A42.752 42.752 0 0 1 128 725.226667v-725.12A42.666667 42.666667 0 0 1 170.666667-42.66666699999996z m170.666666 768h341.333334V768H341.333333v-42.666667z"  horiz-adv-x="1024" />

    
    <glyph glyph-name="orders" unicode="&#59549;" d="M725.504 128C725.290667 128 725.333333 725.290667 725.333333 725.290667L640 725.333333V768h85.376C748.928 768 768 749.013333 768 725.290667v-597.248A42.666667 42.666667 0 0 0 725.504 85.33333300000004H170.496C147.029333 85.33333300000004 128 104.32000000000005 128 128.04266700000005V725.290667C128 748.885333 147.157333 768 170.624 768H256v-42.666667H170.624L170.666667 128.04266700000005 725.504 128z m124.949333 469.333333H810.666667v42.666667h42.666666c23.573333 0 42.666667-18.986667 42.666667-42.709333v-597.248A42.666667 42.666667 0 0 0 853.504-42.66666699999996H298.496A42.453333 42.453333 0 0 0 256 0v42.666667h42.666667v-42.666667l554.666666 0.042667 0.021334 228.416c-0.042667 168.597333-0.021333 368.853333-0.021334 368.853333L850.453333 597.333333zM298.666667 554.666667h298.666666v-42.666667H298.666667v42.666667z m0-128h213.333333v-42.666667H298.666667v42.666667z m0 341.376C298.666667 791.594667 317.802667 810.666667 341.461333 810.666667h213.077334C578.176 810.666667 597.333333 791.509333 597.333333 768.0426669999999v-42.752A42.688 42.688 0 0 0 554.538667 682.666667h-213.077334A42.752 42.752 0 0 0 298.666667 725.290667V768.0426669999999z m42.666666-42.752L554.538667 725.333333 554.666667 768.0426669999999 341.461333 768 341.333333 725.290667z"  horiz-adv-x="1024" />

    
    <glyph glyph-name="order-ok" unicode="&#59551;" d="M336.213333 376.53333299999997l112.384-131.114666 239.722667 259.712a21.333333 21.333333 0 1 0 31.36-28.928l-256-277.333334a21.333333 21.333333 0 0 0-31.872 0.576l-128 149.333334a21.333333 21.333333 0 1 0 32.384 27.776zM298.666667 768.064C298.666667 791.594667 317.824 810.666667 341.12 810.666667h341.76C706.304 810.666667 725.333333 791.509333 725.333333 768.0426669999999v-42.752A42.645333 42.645333 0 0 0 682.88 682.666667H341.12C317.696 682.666667 298.666667 701.8240000000001 298.666667 725.290667V768.0426669999999zM341.333333 725.333333h341.333334V768H341.333333v-42.666667z m-105.173333 42.666667v-42.666667S170.666667 725.312 170.666667 725.226667V0s682.666667-0.042667 682.666666 0.106667C853.333333 0.10666700000001583 853.333333 725.333333 853.205333 725.333333h-63.296V768h63.296C876.842667 768 896 748.928 896 725.226667v-725.12C896-23.50933299999997 877.013333-42.66666699999996 853.333333-42.66666699999996H170.666667a42.666667 42.666667 0 0 0-42.666667 42.773334V725.226667C128 748.842667 147.114667 768 170.752 768h65.408z"  horiz-adv-x="1024" />

    
    <glyph glyph-name="cart" unicode="&#59552;" d="M64 746.666667h64c12.949333 0 25.450667-10.965333 27.178667-23.978667l74.026666-555.029333C233.706667 133.69600000000003 264.384 106.66666699999996 298.453333 106.66666699999996H874.666667v42.666666H298.474667c-12.629333 0-25.28 11.136-26.986667 23.978667L197.461333 728.3199999999999C192.938667 762.538667 162.346667 789.333333 128 789.333333H64v-42.666666zM277.333333 661.333333h597.504c10.453333 0 16.853333-7.402667 15.36-17.792l-51.968-363.712c-1.813333-12.757333-14.634667-23.829333-27.669333-23.829333H341.333333a21.333333 21.333333 0 0 1 0-42.666667h469.226667c34.24 0 65.066667 26.666667 69.909333 60.458667l51.968 363.712c5.141333 36.053333-21.162667 66.496-57.6 66.496H277.333333a21.333333 21.333333 0 0 1 0-42.666667zM298.666667 0m-42.666667 0a42.666667 42.666667 0 1 1 85.333333 0 42.666667 42.666667 0 1 1-85.333333 0ZM810.666667 0m-42.666667 0a42.666667 42.666667 0 1 1 85.333333 0 42.666667 42.666667 0 1 1-85.333333 0Z"  horiz-adv-x="1024" />

    
    <glyph glyph-name="order2" unicode="&#59553;" d="M341.333333 341.33333300000004a42.666667 42.666667 0 1 0 0 85.333334 42.666667 42.666667 0 0 0 0-85.333334z m170.666667 0a42.666667 42.666667 0 1 0 0 85.333334 42.666667 42.666667 0 0 0 0-85.333334z m170.666667 0a42.666667 42.666667 0 1 0 0 85.333334 42.666667 42.666667 0 0 0 0-85.333334zM298.666667 768.0426669999999C298.666667 791.594667 317.824 810.666667 341.12 810.666667h341.76C706.304 810.666667 725.333333 791.509333 725.333333 768.0426669999999v-42.752A42.645333 42.645333 0 0 0 682.88 682.666667H341.12C317.696 682.666667 298.666667 701.8240000000001 298.666667 725.290667V768.0426669999999zM341.333333 725.333333h341.333334V768H341.333333v-42.666667z m-105.173333 42.666667v-42.666667S170.666667 725.312 170.666667 725.226667V0s682.666667-0.042667 682.666666 0.106667C853.333333 0.10666700000001583 853.333333 725.333333 853.205333 725.333333h-63.296V768h63.296C876.842667 768 896 748.928 896 725.226667v-725.12C896-23.50933299999997 877.013333-42.66666699999996 853.333333-42.66666699999996H170.666667a42.666667 42.666667 0 0 0-42.666667 42.773334V725.226667C128 748.842667 147.114667 768 170.752 768h65.408z"  horiz-adv-x="1024" />

    
    <glyph glyph-name="calendar" unicode="&#59554;" d="M896 448H128v-447.957333l477.738667-0.021334L896 0.0426670000000513V448z m0 42.666667V703.9573330000001C896 704 768 704 768 704V746.666667h128.042667A42.666667 42.666667 0 0 0 938.666667 703.9573330000001v-703.914666A42.624 42.624 0 0 0 896.064-42.66666699999996H127.936A42.666667 42.666667 0 0 0 85.333333 0.0426670000000513V703.9573330000001C85.333333 727.530667 104.256 746.666667 127.957333 746.666667H256v-42.666667l-128-0.042667V490.666667h768zM298.666667 810.666667h42.666666v-170.666667h-42.666666V810.666667z m384 0h42.666666v-170.666667h-42.666666V810.666667zM384 746.666667h256v-42.666667H384V746.666667z"  horiz-adv-x="1024" />

    
    <glyph glyph-name="detail" unicode="&#59555;" d="M298.666667 554.666667h384v-42.666667H298.666667v42.666667z m0-128h298.666666v-42.666667H298.666667v42.666667z m0-128h298.666666v-42.666667H298.666667v42.666667zM170.666667 768h682.666666v-554.666667h42.666667V789.482667c0 11.52-9.557333 21.184-21.333333 21.184H149.333333c-11.626667 0-21.333333-9.557333-21.333333-21.376v-810.581334C128-33.06666700000005 137.557333-42.66666699999996 149.333333-42.66666699999996h490.666667v42.666667H170.666667V768z m469.333333-576.042667c0 11.797333 9.728 21.376 21.376 21.376H896L640-42.66666699999996V191.95733299999995z m153.002667-21.290666H682.666667v-110.336L793.002667 170.66666699999996z"  horiz-adv-x="1024" />

    
    <glyph glyph-name="feedback" unicode="&#59557;" d="M170.666667 0v-0.021333c-0.426667-0.021333 0-0.426667 0-2.069334C170.666667-0.42666699999995217 170.24 0 170.666667 0z m682.666666 607.488V0H170.666667V725.333333h554.666666V768H170.474667C147.178667 768 128 749.8240000000001 128 727.424v-729.514667C128-24.44799999999998 147.114667-42.66666699999996 170.666667-42.66666699999996h682.666666c23.68 0 42.666667 18.218667 42.666667 40.661334v609.493333h-42.666667zM618.474667 376.298667a21.312 21.312 0 0 1 29.226666 7.530666l245.333334 416a21.354667 21.354667 0 0 1-36.757334 21.674667l-245.333333-416a21.333333 21.333333 0 0 1 7.530667-29.226667zM298.666667 511.978667h298.666666v42.666666H298.666667v-42.666666z m0-128h170.666666v42.666666h-170.666666v-42.666666z"  horiz-adv-x="1024" />

    
    <glyph glyph-name="help" unicode="&#59558;" d="M675.328 778.282667A425.429333 425.429333 0 0 1 512 810.666667C276.352 810.666667 85.333333 619.648 85.333333 384s191.018667-426.666667 426.666667-426.666667 426.666667 191.018667 426.666667 426.666667c0 56.746667-11.093333 112-32.384 163.328a21.333333 21.333333 0 0 1-39.402667-16.341333A382.762667 382.762667 0 0 0 896 384c0-212.074667-171.925333-384-384-384S128 171.92533300000002 128 384 299.925333 768 512 768c51.114667 0 100.8-9.984 146.986667-29.12a21.333333 21.333333 0 0 1 16.341333 39.402667z m-117.717333-449.173334a145.92 145.92 0 0 1-12.501334-5.418666 20.693333 20.693333 0 0 1-12.16-19.029334c-0.106667-3.648 0.042667-7.424-0.768-10.944-2.325333-10.304-12.16-17.344-22.144-16.277333a21.248 21.248 0 0 0-19.562666 20.8c-1.152 30.037333 11.349333 51.925333 38.613333 65.002667a121.813333 121.813333 0 0 0 11.264 4.864c36.970667 13.333333 60.096 49.92 56 88.64-4.117333 38.912-34.773333 70.570667-73.216 75.605333a85.354667 85.354667 0 0 1-96.576-82.154667c-0.085333-2.773333-0.213333-5.653333-0.96-8.32a21.12 21.12 0 0 0-22.954667-15.168 21.248 21.248 0 0 0-18.645333 21.696c0.384 31.36 10.197333 59.541333 31.146667 82.88 34.410667 38.357333 77.653333 52.906667 127.530666 40.277334 50.346667-12.757333 81.557333-46.4 93.717334-97.109334 2.069333-8.661333 2.453333-17.728 3.605333-26.624-1.130667-53.248-32.981333-99.477333-82.389333-118.72zM490.666667 213.33333300000004A21.269333 21.269333 0 0 0 512 234.66666699999996c11.776 0 21.333333-9.450667 21.333333-21.312v-21.376A21.269333 21.269333 0 0 0 512 170.66666699999996c-11.776 0-21.333333 9.450667-21.333333 21.312v21.376z"  horiz-adv-x="1024" />

    
    <glyph glyph-name="play" unicode="&#59559;" d="M675.328 778.282667A425.429333 425.429333 0 0 1 512 810.666667C276.352 810.666667 85.333333 619.648 85.333333 384s191.018667-426.666667 426.666667-426.666667 426.666667 191.018667 426.666667 426.666667c0 56.746667-11.093333 112-32.384 163.328a21.333333 21.333333 0 0 1-39.402667-16.341333A382.762667 382.762667 0 0 0 896 384c0-212.074667-171.925333-384-384-384S128 171.92533300000002 128 384 299.925333 768 512 768c51.114667 0 100.8-9.984 146.986667-29.12a21.333333 21.333333 0 0 1 16.341333 39.402667zM456.704 590.0799999999999C432.704 606.848 405.333333 592.917333 405.333333 564.202667v-360.533334c0-28.586667 27.541333-42.538667 51.370667-25.856l252.352 176.768c21.76 15.253333 21.632 43.541333 0 58.709334l-252.373333 176.768z m-8.597333-366.72V544.5333330000001l229.269333-160.597333-229.269333-160.597333z"  horiz-adv-x="1024" />

    
    <glyph glyph-name="hot" unicode="&#59560;" d="M618.666667 810.666667l277.333333-277.333334v-490.645333A85.205333 85.205333 0 0 0 810.88-42.66666699999996H213.12A85.333333 85.333333 0 0 0 128 42.66666699999996V725.333333c0 47.125333 38.165333 85.333333 85.12 85.333334H618.666667z m-0.448-277.504h217.493333L618.666667 750.336l-0.448-217.173333zM853.333333 42.66666699999996V490.666667H618.496c-23.466667 0-42.496 19.072-42.496 42.496V768H213.12C189.738667 768 170.666667 748.906667 170.666667 725.333333v-682.666666c0-23.530667 19.093333-42.666667 42.453333-42.666667h597.76c23.424 0 42.453333 19.093333 42.453333 42.688zM471.658667 507.456c13.653333 22.933333 42.517333 22.933333 56.170666 0l54.677334-91.861333 104.106666-23.68c26.005333-5.909333 34.901333-33.344 17.365334-53.418667l-70.357334-80.426667 9.685334-106.56a21.333333 21.333333 0 1 0-42.474667-3.84l-11.328 124.672 71.381333 81.706667-105.664 24.021333-55.488 93.141334-55.466666-93.141334-105.664-24.042666 71.381333-81.685334-9.813333-108.010666 91.157333 39.104a21.333333 21.333333 0 1 0 16.832-39.210667l-106.538667-45.717333c-24.533333-10.538667-47.872 6.442667-45.461333 33.002666l9.685333 106.538667-70.336 80.448c-17.557333 20.074667-8.533333 47.530667 17.365334 53.418667l104.106666 23.68 54.677334 91.861333z"  horiz-adv-x="1024" />

    
    <glyph glyph-name="fee" unicode="&#59562;" d="M675.328 778.282667A425.429333 425.429333 0 0 1 512 810.666667C276.352 810.666667 85.333333 619.648 85.333333 384s191.018667-426.666667 426.666667-426.666667 426.666667 191.018667 426.666667 426.666667c0 56.746667-11.093333 112-32.384 163.328a21.333333 21.333333 0 0 1-39.402667-16.341333A382.762667 382.762667 0 0 0 896 384c0-212.074667-171.925333-384-384-384S128 171.92533300000002 128 384 299.925333 768 512 768c51.114667 0 100.8-9.984 146.986667-29.12a21.333333 21.333333 0 0 1 16.341333 39.402667zM558.378667 469.333333h81.493333c11.84 0 21.461333-9.472 21.461333-21.333333 0-11.776-9.6-21.333333-21.482666-21.333333H533.333333v-85.333334h106.517334c11.861333 0 21.482667-9.472 21.482666-21.333333 0-11.776-9.6-21.333333-21.482666-21.333333H533.333333v-127.850667c0-11.861333-9.472-21.482667-21.333333-21.482667-11.776 0-21.333333 9.578667-21.333333 21.482667V298.66666699999996h-106.517334A21.354667 21.354667 0 0 0 362.666667 320c0 11.776 9.6 21.333333 21.482666 21.333333H490.666667v85.333334h-106.517334A21.354667 21.354667 0 0 0 362.666667 448c0 11.776 9.6 21.333333 21.482666 21.333333h81.472l-97.813333 114.133334a21.333333 21.333333 0 0 0 32.384 27.733333L512 480.810667l111.786667 130.432a21.333333 21.333333 0 1 0 32.426666-27.776L558.357333 469.333333z"  horiz-adv-x="1024" />

    
    <glyph glyph-name="back" unicode="&#59563;" d="M675.328 778.282667A425.429333 425.429333 0 0 1 512 810.666667C276.352 810.666667 85.333333 619.648 85.333333 384s191.018667-426.666667 426.666667-426.666667 426.666667 191.018667 426.666667 426.666667c0 56.746667-11.093333 112-32.384 163.328a21.333333 21.333333 0 0 1-39.402667-16.341333A382.762667 382.762667 0 0 0 896 384c0-212.074667-171.925333-384-384-384S128 171.92533300000002 128 384 299.925333 768 512 768c51.114667 0 100.8-9.984 146.986667-29.12a21.333333 21.333333 0 0 1 16.341333 39.402667z m-324.693333-373.013334l174.464 174.485334a21.141333 21.141333 0 0 1-0.192 29.973333 21.141333 21.141333 0 0 1-29.973334 0.192l-208.256-208.256a20.821333 20.821333 0 0 1-6.122666-14.976c0.042667-5.418667 2.133333-10.837333 6.314666-14.997333l211.178667-211.2a21.141333 21.141333 0 0 1 29.973333-0.213334 21.141333 21.141333 0 0 1-0.213333 29.973334l-172.629333 172.629333 374.997333-2.602667a20.693333 20.693333 0 0 1 21.034667 21.034667 21.482667 21.482667 0 0 1-21.333334 21.333333l-379.242666 2.624z"  horiz-adv-x="1024" />

    
    <glyph glyph-name="refresh" unicode="&#59564;" d="M853.333333 127.93600000000004A426.112 426.112 0 0 0 512-42.66666699999996C276.352-42.66666699999996 85.333333 148.35199999999998 85.333333 384S276.352 810.666667 512 810.666667s426.666667-191.018667 426.666667-426.666667a21.333333 21.333333 0 0 0-42.666667 0c0 212.074667-171.925333 384-384 384S128 596.074667 128 384s171.925333-384 384-384a383.573333 383.573333 0 0 1 319.36 170.666667h-84.757333A21.248 21.248 0 0 0 725.333333 192c0 11.776 9.664 21.333333 21.269334 21.333333h128.128c5.866667 0 11.178667-2.346667 15.018666-6.186666l0.021334-0.106667c3.84-3.882667 6.229333-9.173333 6.229333-14.976v-128.128c0-11.733333-9.472-21.269333-21.333333-21.269333-11.776 0-21.333333 9.664-21.333334 21.269333v64z"  horiz-adv-x="1024" />

    
    <glyph glyph-name="book" unicode="&#59566;" d="M853.333333 768H213.12C189.738667 768 170.666667 748.842667 170.666667 725.333333v-682.666666c0-23.594667 19.008-42.666667 42.453333-42.666667H853.333333V768zM213.12 810.666667H896v-831.808c0-11.946667-9.557333-21.525333-21.333333-21.525334H213.12A85.205333 85.205333 0 0 0 128 42.66666699999996V725.333333c0 47.018667 38.101333 85.333333 85.12 85.333334z m320.106667-853.333334H874.666667h-21.333334v170.666667H213.12c-15.466667 0-29.952-4.138667-42.453333-11.349333v-110.954667V42.66666699999996c0 23.594667 19.008 42.666667 42.453333 42.666666H853.333333v-128H533.226667zM512 768v-281.813333l-74.368 44.586666a21.333333 21.333333 0 0 1-21.930667 0L341.333333 486.186667V768h170.666667z m10.368-337.792A21.333333 21.333333 0 0 1 554.666667 448.490667V768H298.666667v-319.509333a21.333333 21.333333 0 0 1 32.298666-18.282667L426.666667 487.594667l95.701333-57.386667z"  horiz-adv-x="1024" />

    
    </font>
</defs>
</svg>
